<?xml version="1.0" encoding="utf-8"?>
<!-- Generator: Adobe Illustrator 26.3.1, SVG Export Plug-In . SVG Version: 6.00 Build 0)  -->
<svg version="1.1" id="Capa_1" xmlns="http://www.w3.org/2000/svg" xmlns:xlink="http://www.w3.org/1999/xlink" x="0px" y="0px"
	 viewBox="0 0 1834.7 92.1" style="enable-background:new 0 0 1834.7 92.1;" xml:space="preserve">
<style type="text/css">
	.st0{fill:#97B798;}
	.st1{fill:#432918;}
	.st2{fill:#936037;}
</style>
<g>
	<path class="st0" d="M0.1,52.7c0,6.3,0-8.2,0-8.2L67,44.2l3.3,5.1l3.4,3l6.3,2.8l4.4,0.2h5.5l2.4-0.5l-1.6,3.6l-0.4,2.1l0.4,3
		l2.9,2.3l5.7,0.6l4.6-0.2l5.3,1.5l2.5,0.6l5.9,2.7l1.9-0.3l1.7-1.8l0.8-2.8v-2.9l-0.4-3.7l-1.2-3.1l-3.1-4.6l-1.2-3.3l-0.7-2.2
		l12.4-5.7l7.2-1.8l4.3-0.4l4.9,0.9l2.9,1.3l9.2,26.3l3.8,0.3l3.4-0.4l2.4-1.8l13.8-16.6l6.4,2.2l17.6,0.2l27.8-6l15.7,8l17.9-0.3
		l40.4-8.9l14.5-0.9l21.8,2.4l34.6,0.1l70.2,0.3l65,0.1c64.9-1,129.9-2,194.8-3c37.5-0.2,75-0.4,112.5-0.6c5,0,10.1,0,15.1,0
		c15.4-0.3,30.7-0.5,46.1-0.8c15.5,0.1,31,0.1,46.5,0.2c302.5-2.9,605.1-5.8,907.6-8.7c0.2,12.8,0.3,25.6,0.5,38.4
		c-605.1,0.1-1210.2,0.3-1815.3,0.4H0.2L0.1,52.7L0.1,52.7z"/>
	<path class="st1" d="M115,32.1c0.2-4.7,2.6-9,6.6-11.5c3.9-2.5,7.7-1,9,3.4c1.6,5.4-1.7,13.1-6.7,15.6S114.9,39,115,32.1z"/>
	<path class="st1" d="M113.5,26.4c0.1,2.8-0.5,5.6-1.7,8.2c-2.1,3.6-5.9,3.8-8.7,0.7c-3.8-4.2-4.3-13.2-1-17.8
		c2.4-3.4,6.3-3.8,8.6-0.3C112.5,20,113.5,23.2,113.5,26.4z"/>
	<path class="st1" d="M121.9,50.9c0-4.8,1.8-8.1,5.2-10.4c4.1-2.7,8.4-0.9,9.2,4c0.7,3.7-0.6,7.6-3.3,10.2c-2,2.2-4.8,4.1-7.6,2.2
		C123.6,55.7,121.9,53.9,121.9,50.9z"/>
	<path class="st1" d="M99.9,38.9c0,3.7-0.9,6.9-4.5,8.2c-2.6,0.9-5.7-1.1-7.6-4.7c-1.8-3.4-2.4-7-1-10.8c1.6-4.1,5.6-5.3,8.5-2
		C97.7,32.2,99.3,35.5,99.9,38.9z"/>
	<path class="st2" d="M115,47.3c2.4-2.6,6.5-6.2,12.4-8.3c5.9-2.1,11-1.8,14.7-1.6c3.9,0.2,7.1,0.9,9.4,1.5c1.2,3.8,2.3,6.9,3.1,9.1
		c1,2.6,2.1,5.5,4.4,11.2c0.9,2.2,1.7,4.1,2.2,5.4c1.2-1,2.8-1.9,3.6-3c3.6-4.8,6.8-9.8,10.5-14.6c1.1-1.3,2.5-2.3,4.2-2.8
		c0.8-0.2,2.7,1.4,4.2,2.1c1.8,1,3.7,1.8,5.7,2.4c9,1.7,17.5,0.2,25.7-2c8.4-2.2,13.4-1.2,19.2-6.2c3.7-3.2,12.2-7,17.7-7.7
		c1.8-0.2,6.1,0.5,7,1.5c0.9,1-0.5,3.4-1.9,4.1c-5.3,2.9-11.9,4.7-18.7,7.3c0.5,3.1,4.9,4.4,10.2,5c9.2,1.1,19.7-0.4,28.8-2.7
		c6.6-1.7,13.5-3.1,20-5c8.6-2.4,17.4-2.2,26.5-1.4c8.5,0.8,17.1,1.7,25.6,1.7c156.7,0.1,1327.9-10.5,1484.6-10.5L1421.4,40
		l-593.6,3.4l0,0l0,0c0,0-322,3.2-478.7,3.1c-9.1,0-18.3-0.9-27.4-1.8c-8.6-0.8-17.3,0-25.7,2.4c-12.6,3.6-25.4,6.7-39.6,7
		c-10.9,0.2-20.4-0.9-25.4-8.2c-16.3,5-32.7,8.9-50.9,4.3c-2.7,3.5-5.2,7-7.9,10.4c-0.8,1.1-1.8,2.1-2.8,3
		c-2.8,2.7-5.5,5.5-11.3,4.7s-4.7-4.5-5.2-7.2c-0.2-1.2-1.2-4.5-3.6-11.1c-2.6-7.3-3.3-8.7-5.1-9.6c-1.2-0.6-2.5-0.7-4.2-0.8
		c0,0-2.8-0.2-5.9,0.3C130.7,40.6,123.6,43,115,47.3z M253.1,36.6c4.1-1.8,1.9-2.2-1.3-1.3l-11.1,4.2c-1.5,0.8-4.4,2.9,1.4,1.4
		L253.1,36.6z"/>
	<rect x="0.1" y="70.4" class="st0" width="1834.5" height="21.7"/>
	<path class="st1" d="M122.9,64.1c0.2,7-3.2,9.4-9.3,6.1c-4.3-2.5-9.4-3.5-14.3-3.1c-1,0.1-2,0-3-0.1c-6.4-0.7-9.1-5.5-5.3-10.8
		c2.9-4,6.5-7.5,10.5-10.4c6.3-4.5,13.1-3.2,17,3.5c2.6,4.3,2.6,6.2,4,11.1C122.7,61.7,122.8,62.9,122.9,64.1z"/>
	<path class="st2" d="M66.4,45.3C58.9,45.6,51.8,46,44.7,46C30.8,46.1,17,46,3.1,46c-2,0-4,0.1-2.7-3.3h4c15.5,0.1,31,0.2,46.4,0.1
		c4.2-0.1,8.4-0.5,12.6-1.3c1.2-0.2,2.8-2,3.1-3.3c3.6-12.6,8.3-24.7,15.8-35.6c0.5-0.8,1.2-1.6,2-2.1c2.1-1,3.8-0.6,3.9,2.1
		c0,1.6-0.2,3.2-0.6,4.8c-3.2,11.9-8.4,23.2-15.4,33.4c-1.5,2.1-1.9,4.2-1.4,5.9c0.2,0.5,0.9,2.6,5,4.5c7.8,3.5,18.6,1.8,22.8,1
		c-0.5,0.4-11.5,7.3-22.5,2.2C70.6,51.8,67.6,47.4,66.4,45.3z M70.5,35.1c-0.5,1.7-0.2,1.7,1.2,0.4c5.5-8.7,9.7-18.1,12.4-28
		c0.7-2.3,0.1-3.6-1.5-0.5C78.5,16.3,74.6,25.8,70.5,35.1z"/>
</g>
</svg>
