<svg id="Capa_1" data-name="Capa 1" xmlns="http://www.w3.org/2000/svg" viewBox="0 0 1834.71 92.1"><defs><style>.cls-1{fill:#97b798;}.cls-2{fill:#432918;}.cls-3{fill:#936037;}</style></defs><path class="cls-1" d="M.11,52.7V44.5L67,44.2l3.3,5.1,3.4,3L80,55.1l4.4.2h5.5l2.4-.5-1.6,3.6-.4,2.1.4,3,2.9,2.3,5.7.6,4.6-.2,5.3,1.5,2.5.6,5.9,2.7,1.9-.3,1.7-1.8.8-2.8V63.2l-.4-3.7-1.2-3.1-3.1-4.6-1.2-3.3-.7-2.2,12.4-5.7,7.2-1.8,4.3-.4,4.9.9,2.9,1.3,9.2,26.3,3.8.3,3.4-.4,2.4-1.8,13.8-16.6,6.4,2.2,17.6.2,27.8-6,15.7,8,17.9-.3,40.4-8.9,14.5-.9,21.8,2.4,34.6.1,70.2.3,65,.1,194.8-3,112.5-.6H834c15.4-.3,30.7-.5,46.1-.8,15.5.1,31,.1,46.5.2l907.6-8.7c.2,12.8.3,25.6.5,38.4q-907.65.15-1815.3.4H.21V52.7Z"/><path class="cls-2" d="M115,32.1a14.17,14.17,0,0,1,6.6-11.5c3.9-2.5,7.7-1,9,3.4,1.6,5.4-1.7,13.1-6.7,15.6S114.91,39,115,32.1Z"/><path class="cls-2" d="M113.51,26.4a18,18,0,0,1-1.7,8.2c-2.1,3.6-5.9,3.8-8.7.7-3.8-4.2-4.3-13.2-1-17.8,2.4-3.4,6.3-3.8,8.6-.3A17.11,17.11,0,0,1,113.51,26.4Z"/><path class="cls-2" d="M121.91,50.9c0-4.8,1.8-8.1,5.2-10.4,4.1-2.7,8.4-.9,9.2,4A11.39,11.39,0,0,1,133,54.7c-2,2.2-4.8,4.1-7.6,2.2A7,7,0,0,1,121.91,50.9Z"/><path class="cls-2" d="M99.91,38.9c0,3.7-.9,6.9-4.5,8.2-2.6.9-5.7-1.1-7.6-4.7a12.77,12.77,0,0,1-1-10.8c1.6-4.1,5.6-5.3,8.5-2A18.6,18.6,0,0,1,99.91,38.9Z"/><path class="cls-3" d="M115,47.3a31.33,31.33,0,0,1,12.4-8.3c5.9-2.1,11-1.8,14.7-1.6a46.13,46.13,0,0,1,9.4,1.5c1.2,3.8,2.3,6.9,3.1,9.1,1,2.6,2.1,5.5,4.4,11.2.9,2.2,1.7,4.1,2.2,5.4,1.2-1,2.8-1.9,3.6-3,3.6-4.8,6.8-9.8,10.5-14.6a8.69,8.69,0,0,1,4.2-2.8c.8-.2,2.7,1.4,4.2,2.1a28.65,28.65,0,0,0,5.7,2.4c9,1.7,17.5.2,25.7-2,8.4-2.2,13.4-1.2,19.2-6.2,3.7-3.2,12.2-7,17.7-7.7,1.8-.2,6.1.5,7,1.5s-.5,3.4-1.9,4.1c-5.3,2.9-11.9,4.7-18.7,7.3.5,3.1,4.9,4.4,10.2,5,9.2,1.1,19.7-.4,28.8-2.7,6.6-1.7,13.5-3.1,20-5,8.6-2.4,17.4-2.2,26.5-1.4,8.5.8,17.1,1.7,25.6,1.7,156.7.1,1327.9-10.5,1484.6-10.5L1421.41,40l-593.6,3.4h0s-322,3.2-478.7,3.1c-9.1,0-18.3-.9-27.4-1.8A69.9,69.9,0,0,0,296,47.1c-12.6,3.6-25.4,6.7-39.6,7-10.9.2-20.4-.9-25.4-8.2-16.3,5-32.7,8.9-50.9,4.3-2.7,3.5-5.2,7-7.9,10.4a19.91,19.91,0,0,1-2.8,3c-2.8,2.7-5.5,5.5-11.3,4.7s-4.7-4.5-5.2-7.2c-.2-1.2-1.2-4.5-3.6-11.1-2.6-7.3-3.3-8.7-5.1-9.6a10.48,10.48,0,0,0-4.2-.8,28.77,28.77,0,0,0-5.9.3C130.71,40.6,123.61,43,115,47.3Zm138.1-10.7c4.1-1.8,1.9-2.2-1.3-1.3l-11.1,4.2c-1.5.8-4.4,2.9,1.4,1.4Z"/><rect class="cls-1" x="0.11" y="70.4" width="1834.5" height="21.7"/><path class="cls-2" d="M122.91,64.1c.2,7-3.2,9.4-9.3,6.1a24.66,24.66,0,0,0-14.3-3.1,15.06,15.06,0,0,1-3-.1c-6.4-.7-9.1-5.5-5.3-10.8a47.09,47.09,0,0,1,10.5-10.4c6.3-4.5,13.1-3.2,17,3.5,2.6,4.3,2.6,6.2,4,11.1C122.71,61.7,122.81,62.9,122.91,64.1Z"/><path class="cls-3" d="M66.41,45.3c-7.5.3-14.6.7-21.7.7-13.9.1-27.7,0-41.6,0-2,0-4,.1-2.7-3.3h4c15.5.1,31,.2,46.4.1a76.94,76.94,0,0,0,12.6-1.3c1.2-.2,2.8-2,3.1-3.3,3.6-12.6,8.3-24.7,15.8-35.6a6.69,6.69,0,0,1,2-2.1c2.1-1,3.8-.6,3.9,2.1a19.73,19.73,0,0,1-.6,4.8,109.1,109.1,0,0,1-15.4,33.4,6.89,6.89,0,0,0-1.4,5.9c.2.5.9,2.6,5,4.5,7.8,3.5,18.6,1.8,22.8,1-.5.4-11.5,7.3-22.5,2.2A22.52,22.52,0,0,1,66.41,45.3Zm4.1-10.2c-.5,1.7-.2,1.7,1.2.4a103.19,103.19,0,0,0,12.4-28c.7-2.3.1-3.6-1.5-.5C78.51,16.3,74.61,25.8,70.51,35.1Z"/></svg>