<svg id="Capa_1" data-name="Capa 1" xmlns="http://www.w3.org/2000/svg" viewBox="0 0 654.5 47.68"><defs><style>.cls-1{fill:#637b64;}.cls-2{fill:#e85260;}</style></defs><path class="cls-1" d="M0,24c0,2.45,0,4.91,0,7.36l5.67-.73,7.62-.31,14.15-.41,19.94.19.21-.43,1-1.17.73-1,.24.17V28l-.51.68-.77,1-.15.65.29.14.87-.14,3.46-3,.67-.23.13.44-.29.7-.46,2,.44.54,1.38,0L57,29.6l.23-.46.29.07,3-1.69a1.06,1.06,0,0,1,1.19.12c.24.32.07,1.07-.65,1.48l-3.2.6-.22.15-.26.36v.41l.36.31.82.44,1.58.28L65,30.59,67,29l-2.18,7,.29.6.73.39,1-.41L68,35.43l5.3-5.83.77.31-1.47,3-.73,3.34.41.7.78-.24,1-.44,6.52-7.09L82.36,28l1.69-.44,1.69-.05h.63l.92-.94,1,.34-.68,1.62-.58,1.62.29,1,1,.11,1.4-.51,1.74-.82,1.19,1.22,1.5,1.25.71.29L100,30.37l.48.39-1.26,3.1L99,36.66l.34,2.79L100.5,41l2.18,1.33,5.44-.38,2.11-1.21,4.84-2.4,3.12-2.22,6-5.4,1-1.57,3.17-1.31,2.13-.12.91.92v2.37l.92.46,1.65-.58h1.52l-1.13,4,.07,2h.85l1.81-.76,1-1.64,2.46-1.87,1.17-1-.44,5.08.44.15.77-.15,1.24-.83,2.57-2.17,1.18-1.65,1.21-1.45,1.74-2.32c.32-.24,1.86-1.33,3.12-.8.16.06.53.22.57.5.07.46-.86,1-1.63,1.31-1.27.45-2.08.08-2.47.61a1.35,1.35,0,0,0-.07,1.16l1.86.41,3.24-.24,2-.63,1.46-.24.36,1.69v1.21l4.6-1.86,1.62-.56,7.74-3.51a1.84,1.84,0,0,1-.24,1.07c-.86,1.36-3.57.71-3.88,1.6-.07.21,0,.56.59,1.21l1.69.24,2.39-.27,3.47-.58,2.78-1.36L183,27.19l.36,1.34,1.21,1.67,1.72.42,1-.51,1.8-1.3,2.24-.86,2.13.23-.07,1.52.24,2,1.19-.05,3.16-.85.73-.63.85.92,1,1,1.28.43,2.9-1.35,2.91-1.2,23.22-.37,31-.34,18.37-.37,29.1-.29,37-.63,21.58-.36,28.33-.19L425.69,27l28.69-.49,25.14-.29,32.13-.55,26.83-.44,25.59-.14,41.52-.63h25l23.9-.42L149.27,12.92l-33.52-1.56L71.11,12.92l-19.2-1.56-21.33,3Z"/><rect class="cls-1" width="654.48" height="24.03"/><path class="cls-2" d="M41.89,29.56c1.21,0,2.37.08,3.49.15a14.09,14.09,0,0,1,3.32.62v.17c-.57,0-1.12.08-1.64.16s-1.06.12-1.63.15-1.26.08-1.88.08H41.64a1.29,1.29,0,0,0-1.12.65c-1.47,2.15-2.93,4.31-4.4,6.48s-2.93,4.33-4.39,6.48l-.95,1.3-1,1.29c-.4.57-.8.73-1.2.47s-.43-.66-.09-1.29a3.21,3.21,0,0,1,.58-1c.24-.29.51-.59.8-.91a13.22,13.22,0,0,0,1.25-1.46c.37-.52.74-1,1.12-1.55l3.32-4.89q1.64-2.43,3.27-4.89a1.74,1.74,0,0,0,.15-.26,1.81,1.81,0,0,1,.19-.3l-.36-.07-.28,0-2.48,0c-.82,0-1.64,0-2.48,0a1.09,1.09,0,0,0-1.07.65c-.58.86-1.16,1.74-1.75,2.63S29.62,35.92,29,36.75a10,10,0,0,1-1.12,1.49c-.4.44-.8.91-1.2,1.4a6.61,6.61,0,0,1-.54.71c-.19.21-.37.44-.54.67-.17-.15-.23-.29-.17-.44s.11-.27.17-.38c.35-.58.67-1.16,1-1.75s.66-1.17,1-1.74c.57-.92,1.15-1.82,1.74-2.69s1.19-1.78,1.79-2.7a.58.58,0,0,0,.06-.15,1.07,1.07,0,0,1,.11-.19L31,31a1.19,1.19,0,0,0-.28,0H26.6c-1.38,0-2.76,0-4.13,0l-6,.19-6.06.2c-.68,0-1.36,0-2,.06l-2,.11c-.15,0-1.42.06-1.62,0S0,31.62,0,31.39s3.79-.7,4-.73c.45-.06,1.77-.28,2-.31.54-.05,1.43,0,2-.08a11.72,11.72,0,0,1,1.53-.11l6.37-.24,6.29-.19q4.69-.14,9.48-.13a1.25,1.25,0,0,0,1.16-.69l3.45-5q1.73-2.49,3.44-5c.41-.52.79-1,1.15-1.55s.75-1.05,1.18-1.6a2.11,2.11,0,0,1,.34-.41A.72.72,0,0,1,43,15.3a5,5,0,0,1-.17.54,1.59,1.59,0,0,1-.26.45l-1.46,2.26c-.49.76-1,1.52-1.47,2.26L36.9,25l-2.76,4.13-.09.17c0,.06-.07.16-.13.31h5.69a.92.92,0,0,0,.52-.13,2.5,2.5,0,0,0,.39-.43c1.12-1.64,2.23-3.28,3.33-4.94s2.21-3.32,3.3-5L49,16.33q.93-1.38,1.83-2.76c.09-.14.19-.28.3-.43s.29-.15.52,0,.37.53.09,1.08l-.95,1.61c-.32.54-.65,1.06-1,1.58-1.24,1.92-2.47,3.82-3.71,5.7s-2.47,3.77-3.7,5.67a1,1,0,0,0-.22.34A2.57,2.57,0,0,1,41.89,29.56Z"/><path class="cls-2" d="M57.12,30.2a5,5,0,0,1-1.58.91,5.9,5.9,0,0,1-1.76.39,2.24,2.24,0,0,1-1.4-.35,1.4,1.4,0,0,1-.52-1.33.78.78,0,0,0,0-.16,1.7,1.7,0,0,1-.07-.23,4.22,4.22,0,0,0-.6.43,5.19,5.19,0,0,1-.6.43c-.32.2-.62.41-.91.62a4,4,0,0,1-.94.54,1.87,1.87,0,0,1-.87.22.76.76,0,0,1-.86-.86,2.26,2.26,0,0,1,.13-.74,5.53,5.53,0,0,1,.78-1.33l.94-1.21c.32-.26.59-.31.82-.17a.62.62,0,0,1,0,.86,6.22,6.22,0,0,1-.45.65l-.49.64c-.09.15-.24.39-.44.74a1.3,1.3,0,0,1,.41-.15A.69.69,0,0,0,49,30l1.49-1.19c.5-.38,1-.78,1.49-1.18a1.26,1.26,0,0,0,.32-.26,1,1,0,0,1,.37-.26A.6.6,0,0,1,53,27a.86.86,0,0,1,.41.08c.35.15.42.42.22.82-.06.2-.13.4-.2.58l-.19.54a1.5,1.5,0,0,0,0,1.12.68.68,0,0,0,.62.3,3.18,3.18,0,0,0,.95-.17q.51-.18,1-.3a3.67,3.67,0,0,0,.58-.2A3,3,0,0,1,57,29.6c.18,0,.31,0,.36.06S57.35,29.92,57.12,30.2Z"/><path class="cls-2" d="M65.6,29.69l.39-.15.39-.16a.65.65,0,0,1,.73.31.5.5,0,0,1-.26.73,15.84,15.84,0,0,1-3.32,1.25,17.76,17.76,0,0,1-3.44.51,9,9,0,0,1-1.27,0,3,3,0,0,1-1.21-.3,1.72,1.72,0,0,1-.8-.75,2,2,0,0,1,0-1.36,4.87,4.87,0,0,1,.56-1.2,3,3,0,0,1,1-.74,7,7,0,0,1,1.62-.49,9.11,9.11,0,0,1,1.61-.15.88.88,0,0,1,.86.73.89.89,0,0,1-.47,1,6,6,0,0,1-.91.46q-.47.19-1,.36a6.53,6.53,0,0,1-.81.13,8.44,8.44,0,0,1-.87,0c-.43,0-.66.1-.71.28a.65.65,0,0,0,.24.59,2.24,2.24,0,0,0,1.51.45,14.5,14.5,0,0,0,2.3-.17A13,13,0,0,0,64,30.5,4.78,4.78,0,0,0,65.6,29.69Zm-4.35-1.25c.2-.26.21-.4,0-.41a2.12,2.12,0,0,0-.82.15,9.22,9.22,0,0,0-1.22.51,12.71,12.71,0,0,0-1.21.69,4.32,4.32,0,0,0,1.68-.19A3.79,3.79,0,0,0,61.25,28.44Z"/><path class="cls-2" d="M66.94,36.06c.92-1,1.84-2,2.77-3s1.78-2,2.52-2.72,1.24-1.08,1.47-.9,0,.74-.78,1.72a20.15,20.15,0,0,1-2.34,2.61c-.85.79-1.69,1.58-2.52,2.39a4.63,4.63,0,0,1-.74.6l-.73.52-.39.19-.43.2a1.4,1.4,0,0,1-1.29-.18,1.71,1.71,0,0,1-.56-1.2,3,3,0,0,1,.13-1.34,16,16,0,0,1,1-3.19c.45-1,.93-2,1.45-3a5.59,5.59,0,0,1,.6-1.08,4.87,4.87,0,0,0,.34-.75.64.64,0,0,0-.21-.71,1.48,1.48,0,0,1,.21-.35,2.71,2.71,0,0,0,1.27-1c.3-.46.61-.91.93-1.34L72.15,20a26.7,26.7,0,0,1,2.75-3.25,13.41,13.41,0,0,1,1.12-1,1.79,1.79,0,0,1,.78-.52,2.7,2.7,0,0,1,.6-.17.84.84,0,0,1,.61.17.82.82,0,0,1,.32.58,1.17,1.17,0,0,1-.15.63l-.45.92a8.11,8.11,0,0,1-.54.89,33.09,33.09,0,0,1-3,3.38c-1.07,1.05-2.17,2.07-3.32,3.08q-.53.48-1,1A11.37,11.37,0,0,0,69,26.8c-.57,1-1.13,2.06-1.68,3.08a30.46,30.46,0,0,0-1.46,3.17c-.12.37-.22.74-.32,1.12s-.2.74-.28,1.12a1.52,1.52,0,0,0-.07,1,.48.48,0,0,0,.45.3,1.62,1.62,0,0,0,.67-.17A2.94,2.94,0,0,0,66.94,36.06Zm9.13-18.65c-.26.26-.67.68-1.23,1.27s-1.13,1.23-1.7,1.92-1.09,1.35-1.55,2A4.19,4.19,0,0,0,70.81,24c.23-.23.6-.6,1.1-1.12l1.6-1.68c.56-.6,1.1-1.21,1.63-1.81s1-1.11,1.27-1.53.47-.69.45-.82S76.59,17,76.07,17.41Z"/><path class="cls-2" d="M73.87,36.06c.92-1,1.85-2,2.78-3s1.77-2,2.52-2.72,1.23-1.08,1.46-.9,0,.74-.77,1.72a20.22,20.22,0,0,1-2.35,2.61c-.85.79-1.69,1.58-2.52,2.39a4.56,4.56,0,0,1-.73.6c-.26.17-.5.35-.73.52l-.39.19-.43.2a1.38,1.38,0,0,1-1.29-.18,1.67,1.67,0,0,1-.56-1.2A3,3,0,0,1,71,34.94a16.05,16.05,0,0,1,1-3.19c.44-1,.92-2,1.44-3a5.59,5.59,0,0,1,.6-1.08,5,5,0,0,0,.35-.75.66.66,0,0,0-.22-.71,1.42,1.42,0,0,1,.22-.35,2.76,2.76,0,0,0,1.27-1c.3-.46.61-.91.93-1.34.83-1.17,1.66-2.35,2.49-3.51a27.71,27.71,0,0,1,2.76-3.25,13.41,13.41,0,0,1,1.12-1,1.68,1.68,0,0,1,.78-.52,2.7,2.7,0,0,1,.6-.17.82.82,0,0,1,.6.17.87.87,0,0,1,.33.58,1.1,1.1,0,0,1-.16.63c-.14.31-.29.62-.45.92a8.11,8.11,0,0,1-.54.89,33.09,33.09,0,0,1-3,3.38c-1.06,1.05-2.17,2.07-3.32,3.08q-.51.48-1,1a13,13,0,0,0-.9,1.12c-.58,1-1.14,2.06-1.68,3.08a30.52,30.52,0,0,0-1.47,3.17c-.11.37-.22.74-.32,1.12s-.19.74-.28,1.12a1.56,1.56,0,0,0-.06,1,.48.48,0,0,0,.45.3,1.7,1.7,0,0,0,.67-.17A2.86,2.86,0,0,0,73.87,36.06ZM83,17.41l-1.22,1.27q-.84.88-1.71,1.92c-.57.69-1.09,1.35-1.55,2A4.11,4.11,0,0,0,77.75,24l1.1-1.12,1.59-1.68c.56-.6,1.11-1.21,1.64-1.81s1-1.11,1.27-1.53.47-.69.45-.82S83.52,17,83,17.41Z"/><path class="cls-2" d="M91.88,30.25a6.64,6.64,0,0,1-1.45,1A7.62,7.62,0,0,1,88.5,32a3.15,3.15,0,0,1-1.71,0c-.48-.18-.73-.64-.73-1.38,0-.23,0-.47,0-.71s.08-.51.13-.8c-.74.46-1.47.91-2.17,1.36s-1.43.87-2.18,1.27a1.14,1.14,0,0,1-.58.26l-.62.08a1.2,1.2,0,0,1-1.34-.56A1.25,1.25,0,0,1,79.47,30l.39-.47a2.49,2.49,0,0,1,.43-.43,7.55,7.55,0,0,1,2.45-1.47,6.9,6.9,0,0,1,2.89-.34.93.93,0,0,0,.91-.35l.58-.6c.18-.2.38-.4.58-.6a1.71,1.71,0,0,1,.21-.26.61.61,0,0,1,.26-.17,1,1,0,0,1,.33-.05.57.57,0,0,1,.32.09A.88.88,0,0,1,89,26a2.51,2.51,0,0,1-.34.87c-.09.17-.26.52-.52,1.05a8.13,8.13,0,0,0-.58,1.57,2.2,2.2,0,0,0,0,1.27c.11.33.5.4,1.16.2a5.45,5.45,0,0,0,1.12-.45c.4-.22.8-.43,1.21-.63l.34-.19a.52.52,0,0,1,.39-.07.63.63,0,0,1,.32.28C92.14,30.05,92.08,30.16,91.88,30.25Zm-11.33.51a8.32,8.32,0,0,0,2.63-1,10.18,10.18,0,0,0,2.24-1.61A7.39,7.39,0,0,0,82.7,29,5.24,5.24,0,0,0,80.55,30.76Z"/><path class="cls-2" d="M95.11,29.51a2.44,2.44,0,0,0,.58-.92,1.83,1.83,0,0,0,.11-.95.74.74,0,0,0-.48-.56,1.38,1.38,0,0,0-1.12.28,5.3,5.3,0,0,0-.73.56,3.8,3.8,0,0,0-.65.75,1.86,1.86,0,0,0-.28.84.86.86,0,0,0,.37.74l.91.88c.31.3.63.58.94.84.84-.37,1.65-.7,2.46-1a19.19,19.19,0,0,0,2.89-1.24c.35-.2,1.36-1.48,1.6-1.62s-.8,1.37-.66,1.42a.45.45,0,0,1,.3.36.85.85,0,0,1-.43.54,3.75,3.75,0,0,1-.6.24c-.4.17-.88.35-1.42.53s-1.09.39-1.64.61a11.71,11.71,0,0,0-1.51.71,2.92,2.92,0,0,0-1,.82A3.39,3.39,0,0,1,93.6,34.6a11.31,11.31,0,0,1-1.87,1,7.93,7.93,0,0,1-2.09.54,4.25,4.25,0,0,1-1.21-.09.48.48,0,0,1-.28-.21,1.32,1.32,0,0,1-.15-.39c-.06-.14,0-.25.09-.3a2.17,2.17,0,0,0,.34-.22,15.61,15.61,0,0,1,2.22-1.53,14.8,14.8,0,0,1,2.69-1.14,2.2,2.2,0,0,0-.28-.24,1.24,1.24,0,0,1-.28-.28l-.58-.51a4.36,4.36,0,0,1-.5-.56,2.08,2.08,0,0,1-.47-1.27,1.89,1.89,0,0,1,.52-1.27,7.13,7.13,0,0,1,1.61-1.3,5,5,0,0,1,2-.64c.89-.15,1.47.1,1.73.73a1.28,1.28,0,0,1,.13.95,2.23,2.23,0,0,1-.48.86,2.8,2.8,0,0,1-.64.62,6.08,6.08,0,0,1-.78.41.48.48,0,0,0-.09-.13A.49.49,0,0,1,95.11,29.51ZM90,34.81c-.2.35-.2.53,0,.56a1.76,1.76,0,0,0,.88-.21,9.61,9.61,0,0,0,1.32-.76,11,11,0,0,0,1.33-1,6.1,6.1,0,0,0-1.89.36A3.41,3.41,0,0,0,90,34.81Z"/><path class="cls-2" d="M123.65,22.66a.82.82,0,0,1-.06-.75,2.84,2.84,0,0,0,.23-.62c.14-.41.3-.82.48-1.25a5.7,5.7,0,0,0,.34-1.25,4.13,4.13,0,0,0-.17-1.68,4.21,4.21,0,0,0-.8-1.47,4.49,4.49,0,0,0-1.25-1.05,3.74,3.74,0,0,0-1.53-.5,5.92,5.92,0,0,0-1.81.2,10.23,10.23,0,0,0-1.76.62,25.55,25.55,0,0,0-6.59,4.14,43.74,43.74,0,0,0-4.29,4.07,29.54,29.54,0,0,0-3.51,4.67,30.83,30.83,0,0,0-2,3.92,14,14,0,0,0-1.06,4.18,10.15,10.15,0,0,0,0,2.07,4.11,4.11,0,0,0,.74,1.85,3.26,3.26,0,0,0,1.78,1.48,6.56,6.56,0,0,0,2.48.29,11.31,11.31,0,0,0,2.63-.5,23.69,23.69,0,0,0,2.54-1A36.68,36.68,0,0,0,115.94,37a37.64,37.64,0,0,0,5.25-4.11c.58-.49,1.15-1,1.71-1.42s.47-1.22,1.1-1.63c0,.06.63.47.62.57s.08,1.53,0,1.59c-.76-.24-1.77,1-2.79,2a30.2,30.2,0,0,1-3.25,2.72,40.44,40.44,0,0,1-4.82,3.1,30.31,30.31,0,0,1-5.17,2.2,14.17,14.17,0,0,1-2.31.66,12,12,0,0,1-2.39.24,5,5,0,0,1-3.4-1.14,5.14,5.14,0,0,1-1.81-3.34,10.21,10.21,0,0,1-.07-2.76,12.41,12.41,0,0,1,.63-2.75A22.82,22.82,0,0,1,101,28.8,27.59,27.59,0,0,1,103.36,25a50.37,50.37,0,0,1,4.2-4.74,35.58,35.58,0,0,1,4.85-4,35.05,35.05,0,0,1,3.23-1.87,15.46,15.46,0,0,1,3.44-1.28,5.56,5.56,0,0,1,2.67-.1,5,5,0,0,1,2.07,1,4.81,4.81,0,0,1,1.36,1.7,5.08,5.08,0,0,1,.54,2,5,5,0,0,1-.26,2.24,8.9,8.9,0,0,1-1.08,2.07.72.72,0,0,1-.3.3C123.94,22.45,123.79,22.55,123.65,22.66Z"/><path class="cls-2" d="M136.15,30.25a6.79,6.79,0,0,1-1.44,1,7.83,7.83,0,0,1-1.94.73,3.15,3.15,0,0,1-1.71,0c-.48-.18-.73-.64-.73-1.38a5.78,5.78,0,0,1,0-.71c0-.25.07-.51.12-.8-.74.46-1.47.91-2.17,1.36s-1.43.87-2.18,1.27a1.14,1.14,0,0,1-.58.26L125,32a1.2,1.2,0,0,1-1.34-.56,1.25,1.25,0,0,1,.13-1.42c.15-.17.27-.33.39-.47a2.49,2.49,0,0,1,.43-.43A7.59,7.59,0,0,1,127,27.66a6.85,6.85,0,0,1,2.88-.34.93.93,0,0,0,.91-.35l.58-.6c.18-.2.38-.4.58-.6a1.71,1.71,0,0,1,.21-.26.61.61,0,0,1,.26-.17,1,1,0,0,1,.33-.05.55.55,0,0,1,.32.09.88.88,0,0,1,.17.64,2.51,2.51,0,0,1-.34.87c-.09.17-.26.52-.52,1.05a8.13,8.13,0,0,0-.58,1.57,2.2,2.2,0,0,0,0,1.27c.11.33.5.4,1.16.2a5.45,5.45,0,0,0,1.12-.45c.4-.22.8-.43,1.21-.63l.34-.19a.52.52,0,0,1,.39-.07.63.63,0,0,1,.32.28C136.41,30.05,136.35,30.16,136.15,30.25Zm-11.33.51a8.32,8.32,0,0,0,2.63-1,9.94,9.94,0,0,0,2.24-1.61A7.39,7.39,0,0,0,127,29,5.24,5.24,0,0,0,124.82,30.76Z"/><path class="cls-2" d="M136.45,36.06c.92-1,1.84-2,2.78-3s1.77-2,2.52-2.72,1.23-1.08,1.46-.9,0,.74-.77,1.72a20.22,20.22,0,0,1-2.35,2.61c-.85.79-1.69,1.58-2.52,2.39a5,5,0,0,1-.73.6c-.26.17-.51.35-.74.52l-.38.19-.43.2a1.41,1.41,0,0,1-1.3-.18,1.75,1.75,0,0,1-.56-1.2,3.18,3.18,0,0,1,.13-1.34,15.43,15.43,0,0,1,1-3.19c.44-1,.92-2,1.44-3a5.59,5.59,0,0,1,.6-1.08,6.2,6.2,0,0,0,.35-.75.66.66,0,0,0-.22-.71,1.42,1.42,0,0,1,.22-.35,2.76,2.76,0,0,0,1.27-1c.3-.46.61-.91.92-1.34l2.5-3.51a25.91,25.91,0,0,1,2.76-3.25,12,12,0,0,1,1.12-1,1.7,1.7,0,0,1,.77-.52,2.78,2.78,0,0,1,.61-.17.84.84,0,0,1,.92.75,1,1,0,0,1-.15.63c-.14.31-.29.62-.45.92a8.11,8.11,0,0,1-.54.89,33.09,33.09,0,0,1-3,3.38c-1.06,1.05-2.17,2.07-3.32,3.08q-.51.48-1,1a10,10,0,0,0-.9,1.12c-.58,1-1.14,2.06-1.68,3.08a28.58,28.58,0,0,0-1.47,3.17c-.11.37-.22.74-.32,1.12s-.19.74-.28,1.12a1.58,1.58,0,0,0-.07,1,.5.5,0,0,0,.46.3,1.61,1.61,0,0,0,.66-.17A2.71,2.71,0,0,0,136.45,36.06Zm9.13-18.65c-.26.26-.67.68-1.23,1.27s-1.12,1.23-1.7,1.92-1.09,1.35-1.55,2a3.94,3.94,0,0,0-.77,1.42l1.09-1.12c.51-.52,1-1.08,1.6-1.68s1.1-1.21,1.64-1.81,1-1.11,1.27-1.53a1.83,1.83,0,0,0,.45-.82C146.36,16.91,146.1,17,145.58,17.41Z"/><path class="cls-2" d="M143.38,36.06c.92-1,1.85-2,2.78-3s1.78-2,2.52-2.72,1.24-1.08,1.47-.9,0,.74-.78,1.72A20.22,20.22,0,0,1,147,33.76c-.84.79-1.68,1.58-2.52,2.39a4.56,4.56,0,0,1-.73.6c-.26.17-.5.35-.73.52l-.39.19-.43.2a1.4,1.4,0,0,1-1.29-.18,1.71,1.71,0,0,1-.56-1.2,3,3,0,0,1,.13-1.34,16,16,0,0,1,1-3.19c.45-1,.93-2,1.44-3a6.2,6.2,0,0,1,.61-1.08,4.87,4.87,0,0,0,.34-.75.64.64,0,0,0-.21-.71,1.2,1.2,0,0,1,.21-.35,2.71,2.71,0,0,0,1.27-1c.3-.46.61-.91.93-1.34.83-1.17,1.66-2.35,2.5-3.51a26.7,26.7,0,0,1,2.75-3.25,13.41,13.41,0,0,1,1.12-1,1.79,1.79,0,0,1,.78-.52,2.7,2.7,0,0,1,.6-.17.84.84,0,0,1,.93.75,1.17,1.17,0,0,1-.15.63l-.45.92a8.11,8.11,0,0,1-.54.89,33.09,33.09,0,0,1-3,3.38c-1.07,1.05-2.17,2.07-3.32,3.08q-.53.48-1,1a11.37,11.37,0,0,0-.91,1.12c-.57,1-1.13,2.06-1.68,3.08a30.46,30.46,0,0,0-1.46,3.17c-.12.37-.22.74-.33,1.12s-.19.74-.28,1.12a1.56,1.56,0,0,0-.06,1,.48.48,0,0,0,.45.3,1.66,1.66,0,0,0,.67-.17A2.86,2.86,0,0,0,143.38,36.06Zm9.14-18.65c-.26.26-.67.68-1.23,1.27s-1.13,1.23-1.7,1.92-1.09,1.35-1.55,2a4.19,4.19,0,0,0-.78,1.42c.23-.23.6-.6,1.1-1.12L150,21.2c.56-.6,1.11-1.21,1.64-1.81s.95-1.11,1.27-1.53.47-.69.45-.82S153,17,152.52,17.41Z"/><path class="cls-2" d="M158.2,29.69l.39-.15.39-.16a.64.64,0,0,1,.73.31.5.5,0,0,1-.26.73,16,16,0,0,1-3.31,1.25,17.86,17.86,0,0,1-3.45.51,9,9,0,0,1-1.27,0,3,3,0,0,1-1.21-.3,1.65,1.65,0,0,1-.79-.75,1.91,1.91,0,0,1,0-1.36,4.87,4.87,0,0,1,.56-1.2,3,3,0,0,1,1-.74,7,7,0,0,1,1.62-.49,9.19,9.19,0,0,1,1.61-.15.9.9,0,0,1,.87.73.91.91,0,0,1-.48,1,6.36,6.36,0,0,1-.9.46q-.48.19-1,.36a7,7,0,0,1-.82.13,8.38,8.38,0,0,1-.86,0c-.43,0-.67.1-.71.28a.62.62,0,0,0,.23.59,2.24,2.24,0,0,0,1.51.45,14.42,14.42,0,0,0,2.3-.17,13,13,0,0,0,2.33-.59A4.68,4.68,0,0,0,158.2,29.69Zm-4.35-1.25c.2-.26.21-.4,0-.41a2.08,2.08,0,0,0-.81.15,9.29,9.29,0,0,0-1.23.51c-.46.24-.86.46-1.21.69a4.32,4.32,0,0,0,1.68-.19A3.79,3.79,0,0,0,153.85,28.44Z"/><path class="cls-2" d="M159.45,32.74l.58-.23.59-.24c1.09-.57,2.2-1.1,3.33-1.57a32.38,32.38,0,0,1,3.51-1.23,3.12,3.12,0,0,1,.87-.26.89.89,0,0,1,.45,0,.53.53,0,0,1,.32.35c.14.34,0,.65-.39.9l-.21.09a1.82,1.82,0,0,0-.3.13,33.62,33.62,0,0,0-5.15,1.87c-1.65.77-3.28,1.6-4.89,2.52a3.05,3.05,0,0,0-.69.54l-.6.67c-.75,1.06-1.52,2.13-2.33,3.19a31,31,0,0,1-2.58,3c-.75.75-1.53,1.47-2.33,2.18A12.59,12.59,0,0,1,147,46.49a4.78,4.78,0,0,1-1.08.47,1.42,1.42,0,0,1-1.38-.26,1.28,1.28,0,0,1-.3-1.33,5.07,5.07,0,0,1,.91-1.51c.4-.52.82-1,1.27-1.49s.91-.94,1.4-1.4c1.15-1.09,2.32-2.11,3.53-3.06a32.47,32.47,0,0,1,3.83-2.58,6.32,6.32,0,0,0,1.77-1.53,16.91,16.91,0,0,0,1.29-1.92,1.32,1.32,0,0,0,.11-.41c0-.13,0-.26.07-.41a3,3,0,0,1,.36-1.5,7.88,7.88,0,0,1,.88-1.25,1.14,1.14,0,0,1,.65-.41.6.6,0,0,1,.56.15.8.8,0,0,1,.37.45.89.89,0,0,1-.11.71c-.2.46-.42.91-.65,1.34s-.46.89-.69,1.38a2.9,2.9,0,0,1-.19.34,2,2,0,0,0-.19.39ZM155,37a2.26,2.26,0,0,0-1.24.47,16.71,16.71,0,0,0-1.71,1.25q-.87.74-1.68,1.47l-1.22,1.12c-.61.54-1.19,1.1-1.75,1.68s-1.11,1.15-1.66,1.72a4.39,4.39,0,0,1-.3.45.94.94,0,0,0-.08.71,21.24,21.24,0,0,0,5.4-3.94A49.08,49.08,0,0,0,155,37Zm7.16-12.49a2.4,2.4,0,0,1,.73-.05c.2,0,.34.18.43.43a.61.61,0,0,1,0,.56,1.07,1.07,0,0,1-.43.44,4.41,4.41,0,0,0-.39.25.88.88,0,0,1-.39.18,1.06,1.06,0,0,1-.54-.07,2.33,2.33,0,0,1-.41-.24.51.51,0,0,1-.12-.53.85.85,0,0,1,.3-.5,1.06,1.06,0,0,1,.43-.32Z"/><path class="cls-2" d="M176.94,29.69l.39-.15.39-.16a.65.65,0,0,1,.73.31.5.5,0,0,1-.26.73,15.84,15.84,0,0,1-3.32,1.25,17.76,17.76,0,0,1-3.44.51,9,9,0,0,1-1.27,0,3,3,0,0,1-1.21-.3,1.72,1.72,0,0,1-.8-.75,2,2,0,0,1,0-1.36,4.87,4.87,0,0,1,.56-1.2,3,3,0,0,1,1-.74,7,7,0,0,1,1.62-.49,9.11,9.11,0,0,1,1.61-.15.88.88,0,0,1,.86.73.89.89,0,0,1-.47,1,6,6,0,0,1-.91.46q-.47.19-1,.36a6.53,6.53,0,0,1-.81.13,8.44,8.44,0,0,1-.87,0c-.43,0-.66.1-.71.28a.65.65,0,0,0,.24.59,2.24,2.24,0,0,0,1.51.45,14.5,14.5,0,0,0,2.3-.17,13,13,0,0,0,2.33-.59A4.78,4.78,0,0,0,176.94,29.69Zm-4.35-1.25c.2-.26.21-.4,0-.41a2.12,2.12,0,0,0-.82.15,8.7,8.7,0,0,0-1.22.51,12.71,12.71,0,0,0-1.21.69,4.32,4.32,0,0,0,1.68-.19A3.79,3.79,0,0,0,172.59,28.44Z"/><path class="cls-2" d="M184.91,31.06a1.59,1.59,0,0,1-.82-.25,1.77,1.77,0,0,1-.49-.56,3.73,3.73,0,0,1-.31-.74c-.07-.26-.13-.51-.19-.77s-.42-.6-.73-.6a1.92,1.92,0,0,0-1,.28,4.1,4.1,0,0,0-.93.71,8.38,8.38,0,0,1-.69.64,9.35,9.35,0,0,0-2.32,2.8,1.22,1.22,0,0,1-.41.56,1.4,1.4,0,0,1-.54.28.54.54,0,0,1-.45-.06.59.59,0,0,1-.2-.52.57.57,0,0,1,.09-.34,1.8,1.8,0,0,0,.17-.31c.55-1,1.08-1.95,1.6-2.93s1-1.95,1.59-2.92a2.86,2.86,0,0,1,.56-.78.55.55,0,0,1,.24-.13.22.22,0,0,1,.23,0,.39.39,0,0,1,.22.48,2.15,2.15,0,0,1-.17.73c-.2.37-.39.75-.56,1.12s-.33.76-.48,1.16a3.63,3.63,0,0,0,.43-.34c.29-.23.56-.45.8-.67a6.94,6.94,0,0,1,.76-.58,2.23,2.23,0,0,1,1.16-.52,1.27,1.27,0,0,1,1.68.95,6.22,6.22,0,0,1,.13.65,4.29,4.29,0,0,0,.13.6.86.86,0,0,0,.3.62,1.08,1.08,0,0,0,.73.11,3.54,3.54,0,0,0,.45,0l.46,0a1,1,0,0,1,.81.17.37.37,0,0,1,.05.5,1.51,1.51,0,0,1-.76.49A4,4,0,0,1,184.91,31.06Z"/><path class="cls-2" d="M198.61,30.25a6.79,6.79,0,0,1-1.44,1,7.83,7.83,0,0,1-1.94.73,3.15,3.15,0,0,1-1.71,0c-.48-.18-.73-.64-.73-1.38a5.78,5.78,0,0,1,.05-.71c0-.25.07-.51.12-.8-.74.46-1.47.91-2.17,1.36s-1.43.87-2.18,1.27a1.14,1.14,0,0,1-.58.26l-.62.08a1.2,1.2,0,0,1-1.34-.56A1.25,1.25,0,0,1,186.2,30c.15-.17.27-.33.39-.47a2.49,2.49,0,0,1,.43-.43,7.59,7.59,0,0,1,2.46-1.47,6.85,6.85,0,0,1,2.88-.34.93.93,0,0,0,.91-.35l.58-.6c.18-.2.38-.4.58-.6a1.71,1.71,0,0,1,.21-.26.61.61,0,0,1,.26-.17,1,1,0,0,1,.33-.05.55.55,0,0,1,.32.09.88.88,0,0,1,.17.64,2.51,2.51,0,0,1-.34.87c-.09.17-.26.52-.52,1.05a8.13,8.13,0,0,0-.58,1.57,2.2,2.2,0,0,0,0,1.27c.11.33.5.4,1.16.2a5.45,5.45,0,0,0,1.12-.45c.4-.22.8-.43,1.21-.63l.34-.19a.52.52,0,0,1,.39-.07.63.63,0,0,1,.32.28C198.87,30.05,198.81,30.16,198.61,30.25Zm-11.33.51a8.32,8.32,0,0,0,2.63-1,9.94,9.94,0,0,0,2.24-1.61,7.39,7.39,0,0,0-2.72.77A5.24,5.24,0,0,0,187.28,30.76Z"/><path class="cls-2" d="M201.84,29.51a2.44,2.44,0,0,0,.58-.92,1.73,1.73,0,0,0,.11-.95.74.74,0,0,0-.48-.56,1.38,1.38,0,0,0-1.12.28,5.3,5.3,0,0,0-.73.56,3.8,3.8,0,0,0-.65.75,1.73,1.73,0,0,0-.27.84.83.83,0,0,0,.36.74l.91.88c.31.3.63.58.94.84.84-.37,1.65-.7,2.46-1s1-.34,2-.74a9.07,9.07,0,0,1,1.3-.48,7.19,7.19,0,0,1,1.12-.16c.17,0,416.4-6.06,416.46-5.86,165.93,0-416.95,6.52-417.16,6.58a4,4,0,0,0-.62.27c-.4.17-.83.44-1.37.62s-1.09.39-1.64.61a11.71,11.71,0,0,0-1.51.71,2.92,2.92,0,0,0-1,.82,3.39,3.39,0,0,1-1.16,1.25,11.31,11.31,0,0,1-1.87,1,7.93,7.93,0,0,1-2.09.54,4.25,4.25,0,0,1-1.21-.09.48.48,0,0,1-.28-.21,1.32,1.32,0,0,1-.15-.39c-.06-.14,0-.25.09-.3a2.17,2.17,0,0,0,.34-.22,15.61,15.61,0,0,1,2.22-1.53,14.8,14.8,0,0,1,2.69-1.14,2.2,2.2,0,0,0-.28-.24,1.24,1.24,0,0,1-.28-.28l-.58-.51a3.64,3.64,0,0,1-.49-.56,2,2,0,0,1-.48-1.27,1.89,1.89,0,0,1,.52-1.27,7.35,7.35,0,0,1,1.61-1.3,5,5,0,0,1,2-.64c.89-.15,1.47.1,1.73.73a1.28,1.28,0,0,1,.13.95,2.23,2.23,0,0,1-.48.86,2.8,2.8,0,0,1-.64.62,5.47,5.47,0,0,1-.78.41.48.48,0,0,0-.09-.13A1.05,1.05,0,0,1,201.84,29.51Zm-5.13,5.3c-.2.35-.2.53,0,.56a1.76,1.76,0,0,0,.88-.21,9.61,9.61,0,0,0,1.32-.76,11,11,0,0,0,1.33-1,6.1,6.1,0,0,0-1.89.36A3.41,3.41,0,0,0,196.71,34.81Z"/></svg>