<svg id="Capa_1" data-name="Capa 1" xmlns="http://www.w3.org/2000/svg" viewBox="0 0 622.94 48.51"><defs><style>.cls-1{fill:#97b798;}.cls-2{fill:#fff;}.cls-3{fill:none;}.cls-4{fill:#936037;}</style></defs><rect class="cls-1" width="622.94" height="11.67"/><path class="cls-1" d="M622.94,30.77l-17.43.29-25.07-.77q-9.47-.34-19.06-.77-7.93-.36-15.78-.78l-28.34-1.62L493,26.73l-50-.89-76.84-.29q-36.69.07-73.74.48l-23.62.29-79.45.78-39.38.11h-1.3l-2.45.44-2.17.63-1.77.6-1.5.83-1.09.77-1.06.9-1.38,1-1.91,1.41-1.87,1.06-1.3.53-.83.08-.62-.83v-1l.26-1.81-.13-.43-2.38,1.3-1.14.34-1.67.14-1.36.12-.67,0-1.89-.34-.34-1.19.58-.5,2.28-.2,1.4-.51,1-.62v-.47l-.69-.55-2,.12-2,1.4L120.8,31l-1.84.38-2,.12-2.54-.19-1.12.15-2.25.17a13.36,13.36,0,0,0-1.83.41c-.1.12-2.54,1.18-2.54,1.18s-2.67.68-2.76.72l-2.71.56-3.2.27-2.39.12-1.19.22-1.59-.41-1-1.43-.29-.48L89.69,33l-1.87.17-5.51.32-2.06.36-1.09.65-2.64,2.3-1.81,1.67-2,1.33h-1V37.11l1.19-1.74,1.91-3.17.56-1.89-.8-.68-2.25.15-1.82.68-3.21,2.37-3.83,1.84L61.57,35l-.8-1L62,31.76l.22-1.67-1-.6-1.6.51-1.21.77L57,31.66l-2.63,1.72L53.78,33l-.7-.38-2.49,1.17-1.4.09-.92-.77L48,32l-3.21.46-3.63-.12-3.53.14H12L0,33.12V10.67L622.94,8.73Z"/><polygon class="cls-2" points="121.94 30.79 122.67 30.05 124.23 29.41 125.34 29.08 126.07 29.23 126.07 29.87 125.65 30.36 124.62 30.82 123.3 31.11 122.25 31.18 121.94 30.79"/><path class="cls-2" d="M73,30.26,71.8,31.77l-1.42.86-1,.31-.2-1s.36-.39.46-.47,1.69-1.09,1.69-1.09Z"/><path class="cls-3" d="M69.8,32.4a4.86,4.86,0,0,0,2.54-1.94,4.83,4.83,0,0,0-1.48.72A3.19,3.19,0,0,0,69.8,32.4Z"/><path class="cls-3" d="M125.73,29.86c.21-.28.22-.43,0-.44a2.51,2.51,0,0,0-.88.16,9.39,9.39,0,0,0-1.32.55,12.5,12.5,0,0,0-1.3.75,4.84,4.84,0,0,0,1.81-.21A4,4,0,0,0,125.73,29.86Z"/><path class="cls-3" d="M93.52,32.8a1.87,1.87,0,0,0-.71.76,1.93,1.93,0,0,1,.32.19l.37.23a6.05,6.05,0,0,1,.53-.79c.2-.25.4-.49.58-.74l-.14-.14C94.13,32.47,93.82,32.63,93.52,32.8Z"/><path class="cls-3" d="M118.64,26.11a11.27,11.27,0,0,0,1.44-1.3,5.68,5.68,0,0,0,1.06-1.62q1.11-2.36-1.71-3.38l-.21-.07a.65.65,0,0,1-.21-.07,17.93,17.93,0,0,0-5.09-.79c-1.17,0-2.36,0-3.57.07s-2.42.07-3.65.07a1.94,1.94,0,0,0-1.81,1.11c-1.17,1.95-2.38,3.85-3.61,5.72s-2.55,3.73-3.94,5.58c-.33.4-.67.83-1,1.27s-.68.92-1,1.42a14.24,14.24,0,0,0,1.66.07q.75,0,1.53-.12a53,53,0,0,0,5.37-1A40.4,40.4,0,0,0,109,31.43a51.67,51.67,0,0,0,5-2.34A33.08,33.08,0,0,0,118.64,26.11Z"/><path class="cls-4" d="M52.41,24.07a2.35,2.35,0,0,0-.48,1.06c-.13.59-.1.92.07,1s.47,0,.9-.28a4.74,4.74,0,0,0,.88-.7,1.73,1.73,0,0,0,.51-.78.56.56,0,0,0-.12-.56.75.75,0,0,0-.58-.23A1.4,1.4,0,0,0,52.41,24.07Z"/><path class="cls-4" d="M622.94,30.77c0-.31-9.17-.24-22.08-.58-14.18-.36-18-.82-37.55-1.74-7.25-.34-17-.69-36.6-1.4-23.2-.83-34.79-1.27-47.74-1.55-44-.92-69.66-.47-92.39-.51C308.3,24.85,230,26.85,151.74,26.73a23.55,23.55,0,0,0-8.92,1.61,22.86,22.86,0,0,0-4.5,2.42l-.43.25a1,1,0,0,0-.34.26,1.21,1.21,0,0,1-.33.3c-.33.31-.69.63-1.08,1s-.79.63-1.21.93-.82.56-1.2.81a7.17,7.17,0,0,1-1,.55c-.67.31-1.11.35-1.33.12a1.27,1.27,0,0,1-.23-1.11,8.24,8.24,0,0,1,.48-1.76h0l.14-.06a.54.54,0,0,0,.27-.79.18.18,0,0,0-.05-.07c.13-.32.26-.62.38-.9.31-.65.67-1.37,1.09-2.16s.86-1.59,1.35-2.43,1-1.65,1.49-2.45,1-1.54,1.48-2.22c.44,0,1.08,0,1.89,0l2.75,0c1,0,2.08,0,3.2,0s2.2-.05,3.23-.1,2-.1,2.85-.16a19.3,19.3,0,0,0,2-.23q.89-.23,1-.6c.06-.25-.26-.4-1-.46a8.23,8.23,0,0,0-1.45,0l-1.87.19c-1.06.12-2.16.22-3.31.3s-2.27.12-3.35.14-2.09,0-3-.05a15.93,15.93,0,0,1-2.27-.25c.41-.65.71-1.13.87-1.44s.31-.57.42-.79l.35-.64c.13-.22.34-.56.65-1,.05-.1.12-.2.2-.33a1,1,0,0,0,.17-.37,2.1,2.1,0,0,0,0-.41.64.64,0,0,0-.13-.33.37.37,0,0,0-.52,0,1.26,1.26,0,0,0-.39.48c-.39.59-.69,1-.89,1.37s-.4.63-.57.9l-.54.93c-.19.34-.48.8-.87,1.39a.93.93,0,0,1-.21.23A19.18,19.18,0,0,1,134,20a26.15,26.15,0,0,1-2.85-.14A2,2,0,0,0,130,20a1.27,1.27,0,0,0-.43.44c-.06.09,0,.25.14.46s.55.28,1.19.19l2.6,0c.95,0,1.89,0,2.81-.07-.39.68-.83,1.42-1.31,2.2s-1,1.6-1.46,2.43-.95,1.69-1.39,2.55A24.64,24.64,0,0,0,131,30.78l-.07.22-.09,0-.42.16a5.09,5.09,0,0,1-1.69.88,13.06,13.06,0,0,1-2.5.62,13.55,13.55,0,0,1-2.47.19,2.36,2.36,0,0,1-1.63-.49.66.66,0,0,1-.25-.62c0-.2.3-.3.76-.3.31,0,.62,0,.93-.05a7.71,7.71,0,0,0,.88-.14c.37-.12.72-.25,1.06-.39a6.89,6.89,0,0,0,1-.49A1,1,0,0,0,127,29.3a1,1,0,0,0-.93-.79,9.75,9.75,0,0,0-1.74.17,7.38,7.38,0,0,0-1.73.53,4.69,4.69,0,0,0-1.07.79l-.57.44c-.94.72-4.12.32-7.43.62.83-.42,1.65-.86,2.45-1.34s1.76-1.09,2.61-1.69A18.38,18.38,0,0,0,121,26a14.17,14.17,0,0,0,1-1.18,4.22,4.22,0,0,0,.69-1.41,3.27,3.27,0,0,0,0-2.59,4,4,0,0,0-2-1.9,14.63,14.63,0,0,0-2.27-.79,21.62,21.62,0,0,0-4.4-.55c-1.45,0-2.91,0-4.39.09-.53,0-1,0-1.53.05s-1,.07-1.62.14a1.71,1.71,0,0,0,.14-.42c.61-1.05,1.22-2.08,1.83-3.1s1.18-2.06,1.73-3.11c.06-.09.12-.2.19-.32a.93.93,0,0,0,.09-.42.37.37,0,0,0-.19-.46.48.48,0,0,0-.46,0,.56.56,0,0,0-.28.17,1.14,1.14,0,0,1-.23.2l-.35.63a3.47,3.47,0,0,1-.39.58c-.59,1-1.17,1.93-1.76,2.92s-1.19,2-1.8,3l-.28.42a.76.76,0,0,1-.51.23l-3.89.62c-1.3.2-2.59.43-3.89.67-1.88.37-3.74.77-5.58,1.18l-5.53,1.28a4.45,4.45,0,0,0-.91.25c-.26.11-.53.21-.8.3a1.37,1.37,0,0,0-.35.28c-.08.09,0,.26.11.51h.51a1.36,1.36,0,0,0,.51-.09q4.31-1,8.54-1.9t8.64-1.53a9.32,9.32,0,0,1,1-.14,9.72,9.72,0,0,0,1.2-.18,1.82,1.82,0,0,1-.18.41,1.31,1.31,0,0,0-.14.24q-1.62,2.4-3.27,4.76c-1.09,1.58-2.18,3.15-3.26,4.73a2.44,2.44,0,0,1-1.94,1.29,4.59,4.59,0,0,0-1.6.47,8,8,0,0,0-1.37.88l0,0a36,36,0,0,1-4.06.45c-5.23.82-6.78-.31-8.62,1.19-.23.18-.41.33-2.18,1.92-.58.52-1.19,1-1.8,1.53s-1.24,1-1.85,1.43a1,1,0,0,1-.49.32,5.29,5.29,0,0,0-.76.33,9.94,9.94,0,0,1,.5-2,14.92,14.92,0,0,1,.75-1.62c1.08-2.23,2.24-4.39,3.49-6.51s2.57-4.23,4-6.36c.15-.28.33-.57.53-.88a9.88,9.88,0,0,1,.63-.88q.6-1.11,0-1.44c-.34-.18-.74,0-1.21.6a1.3,1.3,0,0,0-.23.33,3,3,0,0,1-.18.32c-.81,1.21-1.6,2.39-2.39,3.54a33,33,0,0,1-2.61,3.36,3.64,3.64,0,0,1-.81.62,3,3,0,0,1-1,.35,3.43,3.43,0,0,0-1.39.33,8,8,0,0,0-1.87.95,6.62,6.62,0,0,0-1.43,1.32,3.51,3.51,0,0,0-.63.23c-.81.43-1.73.92-2.78,1.45a27.37,27.37,0,0,1-2.78,1.28c-.62.25-1,.25-1.06,0a1.89,1.89,0,0,1,.18-1.23c.22-.46.45-.9.7-1.32a2.13,2.13,0,0,0,.27-1.36,1.69,1.69,0,0,0-.44-1.07,1.26,1.26,0,0,0-.83-.34,2.63,2.63,0,0,0-1.06.18,10.75,10.75,0,0,0-1.05.44A18.46,18.46,0,0,0,57,31c-.76.51-1.47,1-2.15,1.6-.37.34-.55.48-.53.42a1.45,1.45,0,0,1,.3-.44c.18-.24.4-.49.64-.77s.42-.48.51-.6a7,7,0,0,0,.65-.95l.6-1c.47-.71.56-1.16.28-1.35s-.63,0-1.16.6a1.78,1.78,0,0,1-.32.56L55,30.32,54.5,31a1.44,1.44,0,0,0-.81.53,3.65,3.65,0,0,1-.79.63c-.37.23-.76.45-1.18.67a8.93,8.93,0,0,1-1.23.51,2,2,0,0,1-1,.09.59.59,0,0,1-.47-.53,2.9,2.9,0,0,1,.4-1.42c.3-.52.61-1,.92-1.48s.62-.94.93-1.43a1.22,1.22,0,0,0,.32-.86.87.87,0,0,0-.3-.6.81.81,0,0,0-.58-.19.8.8,0,0,0-.55.3,8.56,8.56,0,0,0-1,1.81,15.18,15.18,0,0,1-1,1.85l-.11.17c-.29.45-2.93.68-6.77.8q1.5-2.37,3.06-4.76t3-4.56c1-1.47,2.06-3,3.08-4.52a2.92,2.92,0,0,1,.4-.39.9.9,0,0,1,.57-.16h15.7c1.2,0,2.44,0,3.71.09s2.48.08,3.65,0a2.87,2.87,0,0,0,1.37-.32c.29-.19.44-.38.44-.58s-.16-.38-.49-.53A3.14,3.14,0,0,0,74.46,16c-1.64,0-3.28.07-4.91.21s-3.26.22-4.86.25l-6.21,0c-2.07,0-4.13,0-6.2,0a1.37,1.37,0,0,1-.56-.1,2.55,2.55,0,0,0,.37-.69.58.58,0,0,0,.1-.32.31.31,0,0,0-.14-.28.59.59,0,0,0-.7.09,2.46,2.46,0,0,0-.69.88,1.26,1.26,0,0,1-1.07.42c-.74,0-1.47,0-2.2,0s-1.46,0-2.2-.07c-2.68,0-5.38,0-8.1-.14l-4.58-.09-4.63-.09a1.83,1.83,0,0,0-1,.23.9.9,0,0,0-.44.51.47.47,0,0,0,.23.51,1.62,1.62,0,0,0,1,.19,38,38,0,0,0,4-.12,37.93,37.93,0,0,1,4-.12c2.22.07,4.42.11,6.59.14l6.6.1.32.09A4.86,4.86,0,0,1,49,18a4.38,4.38,0,0,0-.28.42q-2.26,3-4.35,6.16t-4.08,6.34l-.62,1c-9,.19-22.89-.07-30.23.26A90.32,90.32,0,0,0,0,33.12C19,33,31.57,33,39.06,33l-2.94,4.75C34.73,40,33.34,42.27,32,44.58a12.8,12.8,0,0,1-.83,1.18A4.72,4.72,0,0,0,30.43,47a1.43,1.43,0,0,0-.28,1,.58.58,0,0,0,.37.46.94.94,0,0,0,.65,0,1.28,1.28,0,0,0,.6-.46c.52-.89,1-1.87,1.55-2.94a31,31,0,0,1,1.6-2.94q2.36-3.75,4.67-7.48l1-1.61c5,0,7.2,0,7.22.11v0a1.87,1.87,0,0,0,.18.43,1.25,1.25,0,0,0,1,.6,2.09,2.09,0,0,0,.74.07c.25,0,.5,0,.74-.07a10.07,10.07,0,0,0,2.2-.78l.47-.24c-.14.2-.26.4-.4.61a.94.94,0,0,0-.21.48.65.65,0,0,0,.21.49c.19.18.37.25.54.18l.48-.18a1,1,0,0,0,.3-.21l.21-.21q.73-.51,1.41-1l1.37-1,1.5-.9c.51-.29,1-.58,1.55-.85a2.72,2.72,0,0,1,1-.19.33.33,0,0,1,.32.3,1.48,1.48,0,0,1-.14.67c-.11.28-.22.59-.35.93a3,3,0,0,1-.27.76,2.66,2.66,0,0,0-.28.81,1.33,1.33,0,0,0,.65,1.58,2.55,2.55,0,0,0,1.89-.1l3-1.22c.8-.35,1.61-.7,2.4-1.06a1,1,0,0,0,.3.66,1.15,1.15,0,0,0,1,.24,2.32,2.32,0,0,0,.55-.17l.51-.21c1-.7,2-1.48,3-2.31l.35-.28.39-.32a1.22,1.22,0,0,1,0,.37,2.4,2.4,0,0,1-.13.32c-.47.93-.93,1.87-1.39,2.83s-.91,1.9-1.35,2.82a8.06,8.06,0,0,0-.37,1c-.09.36-.17.72-.23,1.09a1.19,1.19,0,0,0,.44,1.25,1.4,1.4,0,0,0,1.37.14,3.06,3.06,0,0,0,.72-.28,6.68,6.68,0,0,0,.67-.41c1.52-1.09,2.24-1.69,2.43-1.86,1.73-1.51,2.14-2.09,2.77-2.6,2.94-2.37,8.38-1.24,12-1.84h0a1.91,1.91,0,0,0,.86,1.29.69.69,0,0,0,.51.24c-.62.77-1.19,1.5-1.71,2.2s-1.07,1.38-1.62,2.06q-1.57,2.09-3.18,4.12L83,47.5c-.07.09-.12.18-.17.25s-.1.16-.16.26a4.36,4.36,0,0,0,.67-.37,6.4,6.4,0,0,0,.49-.42,38.68,38.68,0,0,0,3.29-2.92A31,31,0,0,0,89.94,41c.65-.83,1.29-1.66,1.94-2.48l2-2.47a.93.93,0,0,1,.92-.47,15.47,15.47,0,0,0,3.54,0c1.13-.14,2.25-.32,3.36-.53a42.85,42.85,0,0,0,9.89-3c2,0,5.65-.17,9-.37a2.41,2.41,0,0,0,.61,1.47,2.29,2.29,0,0,0,.62.46,3.41,3.41,0,0,0,1.3.33,10.43,10.43,0,0,0,1.37,0,19.71,19.71,0,0,0,3.7-.56,16.36,16.36,0,0,0,2.24-.75.11.11,0,0,0,0,.06,5.7,5.7,0,0,0-.23,1.94,1.74,1.74,0,0,0,.62,1.32q.57.43,2-.12a12.07,12.07,0,0,0,1.68-.85c.6-.36,1.17-.72,1.71-1.09s1-.73,1.44-1.07c.21-.17.44-.42.87-.78.24-.21.43-.35.59-.49,1-.75,1.45-1.13,1.59-1.22a11.77,11.77,0,0,1,1.83-1,34.22,34.22,0,0,1,9-1.68,78.54,78.54,0,0,1,10.6-.08c2.64,0,6.42.07,11,0l5.42.1h0c1.28,0,3.23.07,5.61.06,1.89,0,3.14,0,4.29-.06,3.52-.08,6.14-.08,11.16-.07s5.45.06,8.32,0c1.7,0,2.51-.07,4.55-.1,2.91,0,5,0,6.36,0,7.46.08,14.11,0,16.22-.06l6.49-.13,9.93-.19c7-.14,12.54-.15,20.32-.23,18.18-.18,23-.44,36.2-.48l9.51,0,13-.06c12.25-.08,12.31-.16,20.33-.19,7,0,5.69,0,28.32.09l11.1,0c7.87,0,13.12.05,15.61.06l13.29,0c19.61,0,21.6,0,30.45.07,7.81.08,11.71.12,14.9.26,2,.08,5.39.25,10.2.32,2.17,0,2.72,0,5,0,3.89,0,7.22.15,10.71.29,17.64.73,28,1.36,28,1.36,19.53,1.18,18.81.29,43.22,1.54,20.19,1,28.56,2,45.29,1.55C614.24,31.54,623,31.08,622.94,30.77Zm-499.39-.64a9.39,9.39,0,0,1,1.32-.55,2.51,2.51,0,0,1,.88-.16c.2,0,.19.16,0,.44a4,4,0,0,1-1.67.81,4.84,4.84,0,0,1-1.81.21A12.5,12.5,0,0,1,123.55,30.13ZM69.8,32.4a3.19,3.19,0,0,1,1.06-1.22,4.83,4.83,0,0,1,1.48-.72A4.86,4.86,0,0,1,69.8,32.4ZM94,33.19a6.05,6.05,0,0,0-.53.79l-.37-.23a1.93,1.93,0,0,0-.32-.19,1.87,1.87,0,0,1,.71-.76c.3-.17.61-.33,1-.49l.14.14C94.43,32.7,94.23,32.94,94,33.19Zm9.84-.14a53,53,0,0,1-5.37,1q-.78.09-1.53.12a14.24,14.24,0,0,1-1.66-.07c.34-.5.68-1,1-1.42s.68-.87,1-1.27c1.39-1.85,2.71-3.71,3.94-5.58s2.44-3.77,3.61-5.72A1.94,1.94,0,0,1,106.7,19c1.23,0,2.45,0,3.65-.07s2.4-.07,3.57-.07a17.93,17.93,0,0,1,5.09.79.65.65,0,0,0,.21.07l.21.07q2.82,1,1.71,3.38a5.68,5.68,0,0,1-1.06,1.62,11.27,11.27,0,0,1-1.44,1.3,33.08,33.08,0,0,1-4.6,3,51.67,51.67,0,0,1-5,2.34A40.4,40.4,0,0,1,103.87,33.05Z"/></svg>