<svg id="Capa_1" data-name="Capa 1" xmlns="http://www.w3.org/2000/svg" viewBox="0 0 654.5 47.68"><defs><style>.cls-1{fill:#97b798;}.cls-2{fill:#f0f8fe;}.cls-3{fill:#936037;}</style></defs><path class="cls-1" d="M0,24c0,2.45,0,4.91,0,7.36l5.67-.73,7.62-.31,14.15-.41,19.94.19.21-.43,1-1.17.73-1,.24.17V28l-.51.68-.77,1-.15.65.29.14.87-.14,3.46-3,.67-.23.13.44-.29.7-.46,2,.44.54,1.38,0L57,29.6l.23-.46.29.07,3-1.69a1.06,1.06,0,0,1,1.19.12c.24.32.07,1.07-.65,1.48l-3.2.6-.22.15-.26.36v.41l.36.31.82.44,1.58.28L65,30.59,67,29l-2.18,7,.29.6.73.39,1-.41L68,35.43l5.3-5.83.77.31-1.47,3-.73,3.34.41.7.78-.24,1-.44,6.52-7.09L82.36,28l1.69-.44,1.69-.05h.63l.92-.94,1,.34-.68,1.62-.58,1.62.29,1,1,.11,1.4-.51,1.74-.82,1.19,1.22,1.5,1.25.71.29L100,30.37l.48.39-1.26,3.1L99,36.66l.34,2.79L100.5,41l2.18,1.33,5.44-.38,2.11-1.21,4.84-2.4,3.12-2.22,6-5.4,1-1.57,3.17-1.31,2.13-.12.91.92v2.37l.92.46,1.65-.58h1.52l-1.13,4,.07,2h.85l1.81-.76,1-1.64,2.46-1.87,1.17-1-.44,5.08.44.15.77-.15,1.24-.83,2.57-2.17,1.18-1.65,1.21-1.45,1.74-2.32c.32-.24,1.86-1.33,3.12-.8.16.06.53.22.57.5.07.46-.86,1-1.63,1.31-1.27.45-2.08.08-2.47.61a1.35,1.35,0,0,0-.07,1.16l1.86.41,3.24-.24,2-.63,1.46-.24.36,1.69v1.21l4.6-1.86,1.62-.56,7.74-3.51a1.84,1.84,0,0,1-.24,1.07c-.86,1.36-3.57.71-3.88,1.6-.07.21,0,.56.59,1.21l1.69.24,2.39-.27,3.47-.58,2.78-1.36L183,27.19l.36,1.34,1.21,1.67,1.72.42,1-.51,1.8-1.3,2.24-.86,2.13.23-.07,1.52.24,2,1.19-.05,3.16-.85.73-.63.85.92,1,1,1.28.43,2.9-1.35,2.91-1.2,23.22-.37,31-.34,18.37-.37,29.1-.29,37-.63,21.58-.36,28.33-.19L425.69,27l28.69-.49,25.14-.29,32.13-.55,26.83-.44,25.59-.14,41.52-.63h25l23.9-.42L149.27,12.92l-33.52-1.56L71.11,12.92l-19.2-1.56-21.33,3Z"/><rect class="cls-1" width="654.48" height="24.03"/><polygon class="cls-2" points="59.95 27.93 58.6 28.58 57.66 29.41 58.26 29.7 60.44 29.41 61.74 28.58 61.86 27.79 60.95 27.59 59.95 27.93"/><polygon class="cls-2" points="80.55 31.05 81.48 30.76 83.8 30.18 85.31 28.97 85.94 28.39 85.65 27.83 84.44 27.83 82.36 28.51 81.19 29.41 80.42 30.01 80.25 30.76 80.55 31.05"/><polygon class="cls-2" points="93.51 32.94 90.63 33.71 89.83 34.36 89.42 35.14 89.83 35.62 91.67 35.38 93.75 33.86 93.94 33.18 93.51 32.94"/><polygon class="cls-2" points="129.9 27.79 126.34 28.49 125.28 29.6 124.6 30.3 124.43 30.93 125.03 31.39 127.16 30.76 129.46 29.31 130.24 28.18 129.9 27.79"/><polygon class="cls-2" points="152.83 27.79 150.73 28.82 150.18 29.47 150.8 29.59 152.69 29.41 153.88 28.71 154.45 28.02 154.33 27.62 153.22 27.79 152.83 27.79"/><polygon class="cls-2" points="171.61 27.62 169.84 28.71 169.07 29.14 169.07 29.47 169.77 29.72 171.61 29.41 172.96 28.71 173.16 27.88 172.75 27.62 171.61 27.62"/><polygon class="cls-2" points="189.71 28.18 188.03 29.41 186.94 29.91 186.85 30.76 187.48 31.25 189.87 30.66 191.59 29.26 192.46 28.32 192.66 27.81 189.71 28.18"/><polygon class="cls-2" points="200.01 32.89 197.59 33.59 196.56 34.27 196.24 35.16 196.56 35.7 198.51 35.12 200.66 33.91 200.66 33.18 200.01 32.89"/><polygon class="cls-2" points="155.01 36.36 151.26 38.65 148.52 41.16 145.34 44.55 144.94 45.68 145.61 46.36 148.52 44.87 152.31 41.44 155.01 38 155.65 36.58 155.01 36.36"/><path class="cls-3" d="M161.58,26.26a1.06,1.06,0,0,0,.54.07.88.88,0,0,0,.39-.18,4.41,4.41,0,0,1,.39-.25,1.07,1.07,0,0,0,.43-.44.61.61,0,0,0,0-.56c-.09-.25-.23-.4-.43-.43a2.4,2.4,0,0,0-.73.05l-.39.15a1.06,1.06,0,0,0-.43.32.85.85,0,0,0-.3.5.51.51,0,0,0,.12.53A2.33,2.33,0,0,0,161.58,26.26Z"/><path class="cls-3" d="M624.78,23.74c-.06-.2-416.29,5.86-416.46,5.86a7.19,7.19,0,0,0-1.12.16,9.07,9.07,0,0,0-1.3.48c-.92.4-1.15.45-2,.74s-1.62.62-2.46,1c-.31-.26-.63-.54-.94-.84l-.91-.88a.83.83,0,0,1-.36-.74,1.73,1.73,0,0,1,.27-.84,3.8,3.8,0,0,1,.65-.75,5.3,5.3,0,0,1,.73-.56,1.39,1.39,0,0,1,1.12-.28.74.74,0,0,1,.48.56,1.73,1.73,0,0,1-.11.95,2.44,2.44,0,0,1-.58.92,1.05,1.05,0,0,0,.08.13.48.48,0,0,1,.09.13,5.47,5.47,0,0,0,.78-.41,2.8,2.8,0,0,0,.64-.62,2.23,2.23,0,0,0,.48-.86,1.28,1.28,0,0,0-.13-.95c-.26-.63-.84-.88-1.73-.73a5,5,0,0,0-2,.64,7.59,7.59,0,0,0-1.61,1.3,1.89,1.89,0,0,0-.52,1.27,1.39,1.39,0,0,0,0,.35l-.25.14c-.41.2-.81.41-1.21.63a5.45,5.45,0,0,1-1.12.45c-.66.2-1,.13-1.16-.2a2.2,2.2,0,0,1,0-1.27,8.13,8.13,0,0,1,.58-1.57c.26-.53.43-.88.52-1.05a2.51,2.51,0,0,0,.34-.87.88.88,0,0,0-.17-.64.55.55,0,0,0-.32-.09,1.49,1.49,0,0,0-.33,0,.76.76,0,0,0-.26.18,1.71,1.71,0,0,0-.21.26c-.2.2-.4.4-.58.6l-.58.6a.93.93,0,0,1-.91.35,6.85,6.85,0,0,0-2.88.34A7.59,7.59,0,0,0,187,29.13a2.49,2.49,0,0,0-.43.43l-.14.17h-.07l-.46,0a3.54,3.54,0,0,1-.45,0,1.08,1.08,0,0,1-.73-.11.86.86,0,0,1-.3-.62,4.29,4.29,0,0,1-.13-.6,6.22,6.22,0,0,0-.13-.65,1.27,1.27,0,0,0-1.68-.95,2.23,2.23,0,0,0-1.16.52,6.94,6.94,0,0,0-.76.58c-.24.22-.51.44-.8.67a3.63,3.63,0,0,1-.43.34c.15-.4.3-.79.48-1.16s.36-.75.56-1.12a2.15,2.15,0,0,0,.17-.73.39.39,0,0,0-.22-.48.22.22,0,0,0-.23,0,.55.55,0,0,0-.24.13,2.86,2.86,0,0,0-.56.78c-.55,1-1.08,2-1.59,2.92l-.09.17-.3.12-.39.15a4.78,4.78,0,0,1-1.57.81,13,13,0,0,1-2.33.59,14.5,14.5,0,0,1-2.3.17,2.24,2.24,0,0,1-1.51-.45.64.64,0,0,1-.23-.56.58.58,0,0,0,.11-.18,1.07,1.07,0,0,1,.59-.13,8.44,8.44,0,0,0,.87,0,6.53,6.53,0,0,0,.81-.13q.52-.16,1-.36a6,6,0,0,0,.91-.46.89.89,0,0,0,.47-1,.88.88,0,0,0-.86-.73,9.11,9.11,0,0,0-1.61.15,7,7,0,0,0-1.62.49,3,3,0,0,0-1,.74,3,3,0,0,0-.34.64h0a3.12,3.12,0,0,0-.87.26A30.37,30.37,0,0,0,164,30.7c-1.13.47-2.24,1-3.33,1.57l-.59.24-.58.23-.08-.08a2,2,0,0,1,.19-.39,2.9,2.9,0,0,0,.19-.34q.34-.73.69-1.38c.23-.43.45-.88.65-1.34a.89.89,0,0,0,.11-.71.8.8,0,0,0-.37-.45.6.6,0,0,0-.56-.15,1.14,1.14,0,0,0-.65.41,8.5,8.5,0,0,0-.81,1.14l-.22.09-.39.15a4.68,4.68,0,0,1-1.57.81,13,13,0,0,1-2.33.59,14.42,14.42,0,0,1-2.3.17,2.24,2.24,0,0,1-1.51-.45.62.62,0,0,1-.23-.59c0-.18.28-.28.71-.28a8.38,8.38,0,0,0,.86,0,7,7,0,0,0,.82-.13q.51-.16,1-.36a6.36,6.36,0,0,0,.9-.46.91.91,0,0,0,.48-1,.9.9,0,0,0-.87-.73,9.19,9.19,0,0,0-1.61.15,7,7,0,0,0-1.62.49,3,3,0,0,0-1,.74,4.3,4.3,0,0,0-.52,1.11,7.17,7.17,0,0,0-.73.65c-.74.75-1.58,1.65-2.52,2.72s-1.86,2.06-2.78,3a2.86,2.86,0,0,1-.62.39,1.66,1.66,0,0,1-.67.17.48.48,0,0,1-.45-.3,1.56,1.56,0,0,1,.06-1c.09-.38.18-.75.28-1.12s.21-.75.33-1.12a30.46,30.46,0,0,1,1.46-3.17c.55-1,1.11-2.05,1.68-3.08a11.37,11.37,0,0,1,.91-1.12,13.21,13.21,0,0,1,1-1c1.15-1,2.25-2,3.32-3.08a33.09,33.09,0,0,0,3-3.38,8.11,8.11,0,0,0,.54-.89l.45-.92a1.17,1.17,0,0,0,.15-.63.84.84,0,0,0-.93-.75,2.7,2.7,0,0,0-.6.17,1.79,1.79,0,0,0-.78.52,13.41,13.41,0,0,0-1.12,1A26.7,26.7,0,0,0,148.6,20c-.84,1.16-1.67,2.34-2.5,3.51-.32.43-.63.88-.93,1.34a2.71,2.71,0,0,1-1.27,1,1.2,1.2,0,0,0-.21.35.64.64,0,0,1,.21.71,4.87,4.87,0,0,1-.34.75,6.2,6.2,0,0,0-.61,1.08c-.15.3-.28.6-.43.9a5.35,5.35,0,0,0-.77.69c-.75.75-1.59,1.65-2.52,2.72s-1.86,2.06-2.78,3a2.71,2.71,0,0,1-.63.39,1.61,1.61,0,0,1-.66.17.5.5,0,0,1-.46-.3,1.58,1.58,0,0,1,.07-1c.09-.38.18-.75.28-1.12s.21-.75.32-1.12a28.58,28.58,0,0,1,1.47-3.17c.54-1,1.1-2.05,1.68-3.08a10,10,0,0,1,.9-1.12c.32-.35.65-.67,1-1,1.15-1,2.26-2,3.32-3.08a33.09,33.09,0,0,0,3-3.38,8.11,8.11,0,0,0,.54-.89c.16-.3.31-.61.45-.92a1,1,0,0,0,.15-.63.84.84,0,0,0-.92-.75,2.78,2.78,0,0,0-.61.17,1.7,1.7,0,0,0-.77.52,12,12,0,0,0-1.12,1A25.91,25.91,0,0,0,141.66,20l-2.5,3.51c-.31.43-.62.88-.92,1.34a2.76,2.76,0,0,1-1.27,1,1.42,1.42,0,0,0-.22.35.66.66,0,0,1,.22.71,6.2,6.2,0,0,1-.35.75,5.59,5.59,0,0,0-.6,1.08c-.18.34-.33.68-.49,1l-.24.13c-.41.2-.81.41-1.21.63A5.45,5.45,0,0,1,133,31c-.66.2-1.05.13-1.16-.2a2.2,2.2,0,0,1,0-1.27,8.13,8.13,0,0,1,.58-1.57c.26-.53.43-.88.52-1.05a2.51,2.51,0,0,0,.34-.87.88.88,0,0,0-.17-.64.55.55,0,0,0-.32-.09,1.49,1.49,0,0,0-.33,0,.76.76,0,0,0-.26.18,1.71,1.71,0,0,0-.21.26c-.2.2-.4.4-.58.6l-.58.6a.93.93,0,0,1-.91.35,6.85,6.85,0,0,0-2.88.34,7.59,7.59,0,0,0-2.46,1.47,2.49,2.49,0,0,0-.43.43c-.12.14-.24.3-.39.47a1.86,1.86,0,0,0-.21.39,2.89,2.89,0,0,1-.63,1.08c-.56.45-1.13.93-1.71,1.42A37.64,37.64,0,0,1,115.94,37a36.68,36.68,0,0,1-5.86,3.08,23.69,23.69,0,0,1-2.54,1,11.31,11.31,0,0,1-2.63.5,6.56,6.56,0,0,1-2.48-.29,3.26,3.26,0,0,1-1.78-1.48A4.11,4.11,0,0,1,99.91,38a10.15,10.15,0,0,1,0-2.07,14,14,0,0,1,1.06-4.18,30.83,30.83,0,0,1,2-3.92,29.54,29.54,0,0,1,3.51-4.67,43.74,43.74,0,0,1,4.29-4.07,25.55,25.55,0,0,1,6.59-4.14,10.23,10.23,0,0,1,1.76-.62,5.92,5.92,0,0,1,1.81-.2,3.74,3.74,0,0,1,1.53.5,4.49,4.49,0,0,1,1.25,1.05,4.21,4.21,0,0,1,.8,1.47,4.13,4.13,0,0,1,.17,1.68A5.7,5.7,0,0,1,124.3,20c-.18.43-.34.84-.48,1.25a2.84,2.84,0,0,1-.23.62.82.82,0,0,0,.06.75c.14-.11.29-.21.43-.3a.72.72,0,0,0,.3-.3A8.9,8.9,0,0,0,125.46,20a5,5,0,0,0,.26-2.24,5.08,5.08,0,0,0-.54-2,4.81,4.81,0,0,0-1.36-1.7,5,5,0,0,0-2.07-1,5.56,5.56,0,0,0-2.67.1,15.46,15.46,0,0,0-3.44,1.28,35.05,35.05,0,0,0-3.23,1.87,35.58,35.58,0,0,0-4.85,4,50.37,50.37,0,0,0-4.2,4.74A27.59,27.59,0,0,0,101,28.8c0,.08-.07.16-.11.23a4.11,4.11,0,0,1-.73.71A19.19,19.19,0,0,1,97.22,31c-.81.29-1.62.62-2.46,1-.31-.26-.63-.54-.94-.84l-.91-.88a.86.86,0,0,1-.37-.74,1.86,1.86,0,0,1,.28-.84,3.8,3.8,0,0,1,.65-.75,5.3,5.3,0,0,1,.73-.56,1.38,1.38,0,0,1,1.12-.28.74.74,0,0,1,.48.56,1.83,1.83,0,0,1-.11.95,2.44,2.44,0,0,1-.58.92.49.49,0,0,0,.08.13.48.48,0,0,1,.09.13,6.08,6.08,0,0,0,.78-.41,2.8,2.8,0,0,0,.64-.62,2.23,2.23,0,0,0,.48-.86,1.28,1.28,0,0,0-.13-.95c-.26-.63-.84-.88-1.73-.73a5,5,0,0,0-2,.64,7.13,7.13,0,0,0-1.61,1.3,1.89,1.89,0,0,0-.52,1.27,1.39,1.39,0,0,0,0,.35L91,29.9c-.41.2-.81.41-1.21.63a5.45,5.45,0,0,1-1.12.45c-.66.2-1,.13-1.16-.2a2.2,2.2,0,0,1,0-1.27,8.13,8.13,0,0,1,.58-1.57c.26-.53.43-.88.52-1.05A2.51,2.51,0,0,0,89,26a.88.88,0,0,0-.17-.64.57.57,0,0,0-.32-.09,1.49,1.49,0,0,0-.33,0,.76.76,0,0,0-.26.18,1.71,1.71,0,0,0-.21.26c-.2.2-.4.4-.58.6l-.58.6a.93.93,0,0,1-.91.35,6.9,6.9,0,0,0-2.89.34,7.55,7.55,0,0,0-2.45,1.47,2.49,2.49,0,0,0-.43.43l-.39.47a0,0,0,0,0,0,0,3.58,3.58,0,0,0-.29.27c-.75.75-1.59,1.65-2.52,2.72s-1.86,2.06-2.78,3a2.86,2.86,0,0,1-.62.39,1.7,1.7,0,0,1-.67.17.48.48,0,0,1-.45-.3,1.56,1.56,0,0,1,.06-1c.09-.38.18-.75.28-1.12s.21-.75.32-1.12a30.52,30.52,0,0,1,1.47-3.17c.54-1,1.1-2.05,1.68-3.08a13,13,0,0,1,.9-1.12c.32-.35.65-.67,1-1,1.15-1,2.26-2,3.32-3.08a33.09,33.09,0,0,0,3-3.38,8.11,8.11,0,0,0,.54-.89c.16-.3.31-.61.45-.92a1.1,1.1,0,0,0,.16-.63.87.87,0,0,0-.33-.58.82.82,0,0,0-.6-.17,2.7,2.7,0,0,0-.6.17,1.68,1.68,0,0,0-.78.52,13.41,13.41,0,0,0-1.12,1A27.71,27.71,0,0,0,79.08,20c-.83,1.16-1.66,2.34-2.49,3.51-.32.43-.63.88-.93,1.34a2.76,2.76,0,0,1-1.27,1,1.42,1.42,0,0,0-.22.35.66.66,0,0,1,.22.71,5,5,0,0,1-.35.75,5.59,5.59,0,0,0-.6,1.08c-.15.3-.28.6-.43.9a5.92,5.92,0,0,0-.78.69c-.74.75-1.58,1.65-2.52,2.72s-1.85,2.06-2.77,3a2.94,2.94,0,0,1-.63.39,1.62,1.62,0,0,1-.67.17.48.48,0,0,1-.45-.3,1.52,1.52,0,0,1,.07-1c.08-.38.18-.75.28-1.12s.2-.75.32-1.12a30.46,30.46,0,0,1,1.46-3.17c.55-1,1.11-2.05,1.68-3.08a11.37,11.37,0,0,1,.91-1.12,13.21,13.21,0,0,1,1-1c1.15-1,2.25-2,3.32-3.08a33.09,33.09,0,0,0,3-3.38,8.11,8.11,0,0,0,.54-.89l.45-.92a1.17,1.17,0,0,0,.15-.63.82.82,0,0,0-.32-.58A.84.84,0,0,0,77.4,15a2.7,2.7,0,0,0-.6.17,1.79,1.79,0,0,0-.78.52,13.41,13.41,0,0,0-1.12,1A26.7,26.7,0,0,0,72.15,20l-2.5,3.51c-.32.43-.63.88-.93,1.34a2.71,2.71,0,0,1-1.27,1,1.48,1.48,0,0,0-.21.35.64.64,0,0,1,.21.71,4.87,4.87,0,0,1-.34.75,5.59,5.59,0,0,0-.6,1.08c-.13.24-.23.49-.36.73l-.16.07-.39.15A4.78,4.78,0,0,1,64,30.5a13,13,0,0,1-2.33.59,14.5,14.5,0,0,1-2.3.17,2.24,2.24,0,0,1-1.51-.45.65.65,0,0,1-.24-.59c.05-.18.28-.28.71-.28a8.44,8.44,0,0,0,.87,0,6.53,6.53,0,0,0,.81-.13q.52-.16,1-.36a6,6,0,0,0,.91-.46.89.89,0,0,0,.47-1,.88.88,0,0,0-.86-.73,9.11,9.11,0,0,0-1.61.15,7,7,0,0,0-1.62.49,3,3,0,0,0-1,.74,4.63,4.63,0,0,0-.52,1.09,2.43,2.43,0,0,0-.45.13,3.67,3.67,0,0,1-.58.2q-.48.12-1,.3a3.18,3.18,0,0,1-.95.17.68.68,0,0,1-.62-.3,1.5,1.5,0,0,1,0-1.12l.19-.54c.07-.19.14-.38.2-.58.2-.4.13-.67-.22-.82A.86.86,0,0,0,53,27a.6.6,0,0,0-.36.08,1,1,0,0,0-.37.26,1.26,1.26,0,0,1-.32.26c-.49.4-1,.8-1.49,1.18L49,30a.69.69,0,0,1-.28.11,1.54,1.54,0,0,0-.38.13h0l.43-.72.49-.64a6.22,6.22,0,0,0,.45-.65.62.62,0,0,0,0-.86c-.23-.14-.5-.09-.82.17l-.94,1.21A5.86,5.86,0,0,0,47.18,30a13.43,13.43,0,0,0-1.8-.24c-1.12-.07-2.28-.12-3.49-.15a2.57,2.57,0,0,0,.26-.48,1,1,0,0,1,.22-.34c1.23-1.9,2.47-3.79,3.7-5.67s2.47-3.78,3.71-5.7c.34-.52.67-1,1-1.58l.95-1.61q.42-.82-.09-1.08c-.23-.11-.4-.1-.52,0s-.21.29-.3.43Q49.91,15,49,16.33l-1.83,2.72q-1.63,2.53-3.3,5c-1.1,1.66-2.21,3.3-3.33,4.94a2.5,2.5,0,0,1-.39.43.92.92,0,0,1-.52.13H33.92c.06-.15.1-.25.13-.31l.09-.17L36.9,25l2.75-4.14c.49-.74,1-1.5,1.47-2.26l1.46-2.26a1.59,1.59,0,0,0,.26-.45A5,5,0,0,0,43,15.3a.72.72,0,0,0-.69.06,2.11,2.11,0,0,0-.34.41c-.43.55-.83,1.08-1.18,1.6s-.74,1-1.15,1.55q-1.71,2.53-3.44,5l-3.45,5a1.25,1.25,0,0,1-1.16.69q-4.79,0-9.48.13l-6.29.19-6.37.24a11.72,11.72,0,0,0-1.53.11c-.53.07-1.42,0-2,.08-.2,0-1.52.25-2,.31-.19,0-4,.5-4,.73s4.52.15,4.72.18,1.47,0,1.62,0l2-.11c.66,0,1.34-.06,2-.06l6.06-.2,6-.19c1.37,0,2.75,0,4.13,0h4.14A1.19,1.19,0,0,1,31,31l.32,0a1.07,1.07,0,0,0-.11.19.58.58,0,0,1-.06.15c-.6.92-1.2,1.82-1.79,2.7s-1.17,1.77-1.74,2.69c-.38.57-.72,1.15-1,1.74s-.64,1.17-1,1.75c-.06.11-.11.24-.17.38s0,.29.17.44c.17-.23.35-.46.54-.67a6.61,6.61,0,0,0,.54-.71c.4-.49.8-1,1.2-1.4A10,10,0,0,0,29,36.75c.61-.83,1.2-1.69,1.79-2.58S32,32.4,32.55,31.54a1.09,1.09,0,0,1,1.07-.65c.84,0,1.66,0,2.48,0l2.48,0,.28,0,.36.07a1.81,1.81,0,0,0-.19.3,1.74,1.74,0,0,1-.15.26Q37.24,34,35.61,36.43l-3.32,4.89c-.38.51-.75,1-1.12,1.55a13.22,13.22,0,0,1-1.25,1.46c-.29.32-.56.62-.8.91a3.21,3.21,0,0,0-.58,1c-.34.63-.32,1.06.09,1.29s.8.1,1.2-.47l1-1.29.95-1.3c1.46-2.15,2.93-4.31,4.39-6.48s2.93-4.33,4.4-6.48a1.29,1.29,0,0,1,1.12-.65h1.91c.62,0,1.24,0,1.88-.08s1.07-.08,1.58-.15a.77.77,0,0,0,0,.15.76.76,0,0,0,.86.86,1.87,1.87,0,0,0,.87-.22,4,4,0,0,0,.94-.54c.29-.21.59-.42.91-.62a5.19,5.19,0,0,0,.6-.43,4.22,4.22,0,0,1,.6-.43,1.7,1.7,0,0,0,.07.23.77.77,0,0,1,0,.15,1.41,1.41,0,0,0,.52,1.34,2.24,2.24,0,0,0,1.4.35,5.9,5.9,0,0,0,1.76-.39,5.34,5.34,0,0,0,1.14-.6,1.32,1.32,0,0,0,.13.62,1.72,1.72,0,0,0,.8.75,3,3,0,0,0,1.21.3,9,9,0,0,0,1.27,0,17.76,17.76,0,0,0,3.44-.51,16.8,16.8,0,0,0,1.86-.6c-.1.23-.23.45-.33.68a16,16,0,0,0-1,3.19,3,3,0,0,0-.13,1.34,1.71,1.71,0,0,0,.56,1.2,1.4,1.4,0,0,0,1.29.18l.43-.2.39-.19.73-.52a4.63,4.63,0,0,0,.74-.6c.83-.81,1.67-1.6,2.52-2.39.37-.35.73-.72,1.08-1.1A15.42,15.42,0,0,0,71,34.94a3,3,0,0,0-.12,1.34,1.67,1.67,0,0,0,.56,1.2,1.38,1.38,0,0,0,1.29.18l.43-.2.39-.19c.23-.17.47-.35.73-.52a4.56,4.56,0,0,0,.73-.6c.83-.81,1.67-1.6,2.52-2.39a21,21,0,0,0,2-2.14,1.22,1.22,0,0,0,1.21.39l.62-.08a1.14,1.14,0,0,0,.58-.26c.75-.4,1.47-.83,2.18-1.27s1.43-.9,2.17-1.36c0,.29-.1.55-.13.8s0,.48,0,.71c0,.74.25,1.2.73,1.38a3.15,3.15,0,0,0,1.71,0,7.62,7.62,0,0,0,1.93-.73,7.85,7.85,0,0,0,1.16-.74,1.74,1.74,0,0,0,.11.18,4.36,4.36,0,0,0,.5.56l.58.51a1.24,1.24,0,0,0,.28.28,2.2,2.2,0,0,1,.28.24,14.8,14.8,0,0,0-2.69,1.14,15.61,15.61,0,0,0-2.22,1.53,2.17,2.17,0,0,1-.34.22q-.18.08-.09.3a1.32,1.32,0,0,0,.15.39.48.48,0,0,0,.28.21,4.25,4.25,0,0,0,1.21.09,7.93,7.93,0,0,0,2.09-.54,11.31,11.31,0,0,0,1.87-1,3.39,3.39,0,0,0,1.16-1.25,2.92,2.92,0,0,1,1-.82,11.71,11.71,0,0,1,1.51-.71c.55-.22,1.09-.42,1.64-.61s.78-.28,1.12-.41a19,19,0,0,0-.75,2.12,12.41,12.41,0,0,0-.63,2.75,10.21,10.21,0,0,0,.07,2.76,5.14,5.14,0,0,0,1.81,3.34,5,5,0,0,0,3.4,1.14,12,12,0,0,0,2.39-.24,14.17,14.17,0,0,0,2.31-.66,30.31,30.31,0,0,0,5.17-2.2,40.44,40.44,0,0,0,4.82-3.1A30.2,30.2,0,0,0,121.86,34c.94-.9,1.87-2,2.61-2h.18a1.55,1.55,0,0,0,.3,0l.62-.08a1.14,1.14,0,0,0,.58-.26c.75-.4,1.48-.83,2.18-1.27s1.43-.9,2.17-1.36c-.05.29-.1.55-.12.8a5.78,5.78,0,0,0,0,.71c0,.74.25,1.2.73,1.38a3.15,3.15,0,0,0,1.71,0,7.83,7.83,0,0,0,1.94-.73l.16-.09c-.1.2-.21.4-.29.6a15.43,15.43,0,0,0-1,3.19,3.18,3.18,0,0,0-.13,1.34,1.75,1.75,0,0,0,.56,1.2,1.41,1.41,0,0,0,1.3.18l.43-.2.38-.19c.23-.17.48-.35.74-.52a5,5,0,0,0,.73-.6c.83-.81,1.67-1.6,2.52-2.39.37-.35.73-.72,1.08-1.1a15.39,15.39,0,0,0-.67,2.28,3,3,0,0,0-.13,1.34,1.71,1.71,0,0,0,.56,1.2,1.4,1.4,0,0,0,1.29.18l.43-.2.39-.19c.23-.17.47-.35.73-.52a4.56,4.56,0,0,0,.73-.6c.84-.81,1.68-1.6,2.52-2.39a20.22,20.22,0,0,0,2.35-2.61l0,0a0,0,0,0,0,0,0,1.65,1.65,0,0,0,.79.75,3,3,0,0,0,1.21.3,9,9,0,0,0,1.27,0,17.86,17.86,0,0,0,3.45-.51,16.77,16.77,0,0,0,2.26-.78,1,1,0,0,0,0,.17c0,.15,0,.28-.07.41a1.32,1.32,0,0,1-.11.41,16.91,16.91,0,0,1-1.29,1.92,6.32,6.32,0,0,1-1.77,1.53,33.32,33.32,0,0,0-3.83,2.58c-1.21,1-2.38,2-3.53,3.06-.49.46-1,.93-1.4,1.4s-.87,1-1.27,1.49a5.07,5.07,0,0,0-.91,1.51,1.28,1.28,0,0,0,.3,1.33,1.42,1.42,0,0,0,1.38.26,4.78,4.78,0,0,0,1.08-.47,12.59,12.59,0,0,0,2.67-1.79c.8-.71,1.58-1.43,2.33-2.18a31,31,0,0,0,2.58-3c.81-1.06,1.58-2.13,2.33-3.19l.6-.67a3.05,3.05,0,0,1,.69-.54c1.61-.92,3.24-1.75,4.89-2.52a34.13,34.13,0,0,1,5-1.82,1.37,1.37,0,0,0,.11.36,1.72,1.72,0,0,0,.8.75,3,3,0,0,0,1.21.3,9,9,0,0,0,1.27,0,17.76,17.76,0,0,0,3.44-.51,16.8,16.8,0,0,0,1.86-.6c-.2.37-.4.74-.61,1.11a1.8,1.8,0,0,1-.17.31.57.57,0,0,0-.09.34.59.59,0,0,0,.2.52.54.54,0,0,0,.45.06,1.4,1.4,0,0,0,.54-.28,1.22,1.22,0,0,0,.41-.56,9.35,9.35,0,0,1,2.32-2.8,8.38,8.38,0,0,0,.69-.64,4.1,4.1,0,0,1,.93-.71,1.92,1.92,0,0,1,1-.28c.31,0,.56.2.73.6s.12.51.2.77a3.19,3.19,0,0,0,.3.74,1.77,1.77,0,0,0,.49.56,1.59,1.59,0,0,0,.82.25,4.67,4.67,0,0,0,1,0,1.17,1.17,0,0,0,1.48,1l.62-.08a1.14,1.14,0,0,0,.58-.26c.75-.4,1.48-.83,2.18-1.27s1.43-.9,2.17-1.36c-.05.29-.1.55-.12.8a5.78,5.78,0,0,0-.05.71c0,.74.25,1.2.73,1.38a3.15,3.15,0,0,0,1.71,0,7.83,7.83,0,0,0,1.94-.73,8.25,8.25,0,0,0,1.15-.74,1.88,1.88,0,0,0,.12.18,3.64,3.64,0,0,0,.49.56l.58.51a1.24,1.24,0,0,0,.28.28,2.2,2.2,0,0,1,.28.24,14.8,14.8,0,0,0-2.69,1.14,15.61,15.61,0,0,0-2.22,1.53,2.17,2.17,0,0,1-.34.22q-.18.08-.09.3a1.32,1.32,0,0,0,.15.39.48.48,0,0,0,.28.21,4.25,4.25,0,0,0,1.21.09,7.93,7.93,0,0,0,2.09-.54,11.31,11.31,0,0,0,1.87-1,3.39,3.39,0,0,0,1.16-1.25,2.92,2.92,0,0,1,1-.82,11.71,11.71,0,0,1,1.51-.71c.55-.22,1.09-.42,1.64-.61s1-.45,1.37-.62a4,4,0,0,1,.62-.27C207.83,30.26,790.71,23.74,624.78,23.74Zm-472.95,5a9.29,9.29,0,0,1,1.23-.51,2.08,2.08,0,0,1,.81-.15c.19,0,.18.15,0,.41a3.79,3.79,0,0,1-1.55.75,4.32,4.32,0,0,1-1.68.19C151,29.15,151.37,28.93,151.83,28.69ZM148,22.58c.46-.63,1-1.29,1.55-2s1.14-1.33,1.7-1.92,1-1,1.23-1.27c.51-.37.78-.5.79-.37s-.13.41-.45.82-.74.93-1.27,1.53S150.51,20.6,150,21.2l-1.59,1.68c-.5.52-.87.89-1.1,1.12A4.19,4.19,0,0,1,148,22.58Zm-6.94,0c.46-.63,1-1.29,1.55-2s1.14-1.33,1.7-1.92,1-1,1.23-1.27c.52-.37.78-.5.8-.37a1.83,1.83,0,0,1-.45.82c-.32.42-.74.93-1.27,1.53S143.58,20.6,143,21.2s-1.09,1.16-1.6,1.68L140.33,24A3.94,3.94,0,0,1,141.1,22.58Zm-62.58,0c.46-.63,1-1.29,1.55-2s1.15-1.33,1.71-1.92L83,17.41c.52-.37.79-.5.8-.37s-.14.41-.45.82-.74.93-1.27,1.53S81,20.6,80.44,21.2l-1.59,1.68L77.75,24A4.11,4.11,0,0,1,78.52,22.58Zm-6.93,0c.46-.63,1-1.29,1.55-2s1.14-1.33,1.7-1.92,1-1,1.23-1.27c.52-.37.78-.5.79-.37s-.13.41-.45.82-.74.93-1.27,1.53-1.07,1.21-1.63,1.81l-1.6,1.68c-.5.52-.87.89-1.1,1.12A4.19,4.19,0,0,1,71.59,22.58ZM59.23,28.69a9.22,9.22,0,0,1,1.22-.51,2.12,2.12,0,0,1,.82-.15c.19,0,.18.15,0,.41a3.79,3.79,0,0,1-1.55.75,4.32,4.32,0,0,1-1.68.19A12.71,12.71,0,0,1,59.23,28.69Zm24,1.1a8.32,8.32,0,0,1-2.63,1A5.24,5.24,0,0,1,82.7,29a7.39,7.39,0,0,1,2.72-.77A10.18,10.18,0,0,1,83.18,29.79Zm9,4.61a9.61,9.61,0,0,1-1.32.76,1.76,1.76,0,0,1-.88.21c-.2,0-.2-.21,0-.56a3.41,3.41,0,0,1,1.64-1.1,6.1,6.1,0,0,1,1.89-.36A11,11,0,0,1,92.18,34.4Zm35.27-4.61a8.32,8.32,0,0,1-2.63,1A5.24,5.24,0,0,1,127,29a7.39,7.39,0,0,1,2.72-.77A9.94,9.94,0,0,1,127.45,29.79Zm23.32,12.15a21.24,21.24,0,0,1-5.4,3.94.94.94,0,0,1,.08-.71,4.39,4.39,0,0,0,.3-.45c.55-.57,1.1-1.15,1.66-1.72s1.14-1.14,1.75-1.68l1.22-1.12q.81-.73,1.68-1.47a16.71,16.71,0,0,1,1.71-1.25A2.26,2.26,0,0,1,155,37,49.08,49.08,0,0,1,150.77,41.94Zm19.8-13.25a8.7,8.7,0,0,1,1.22-.51,2.12,2.12,0,0,1,.82-.15c.19,0,.18.15,0,.41a3.79,3.79,0,0,1-1.55.75,4.32,4.32,0,0,1-1.68.19A12.71,12.71,0,0,1,170.57,28.69Zm19.34,1.1a8.32,8.32,0,0,1-2.63,1A5.24,5.24,0,0,1,189.43,29a7.39,7.39,0,0,1,2.72-.77A9.94,9.94,0,0,1,189.91,29.79Zm9,4.61a9.61,9.61,0,0,1-1.32.76,1.76,1.76,0,0,1-.88.21c-.2,0-.2-.21,0-.56a3.41,3.41,0,0,1,1.64-1.1,6.1,6.1,0,0,1,1.89-.36A11,11,0,0,1,198.91,34.4Z"/></svg>