<svg id="Capa_1" data-name="Capa 1" xmlns="http://www.w3.org/2000/svg" viewBox="0 0 252.9 189.61"><defs><style>.cls-1{fill:#e8704f;}.cls-2{fill:#494949;}</style></defs><polygon class="cls-1" points="23.59 13.26 13.27 23.58 9.14 37.52 7.33 78.55 8.63 165.26 26.17 180.49 217.4 183.32 239.85 166.03 248.37 146.68 246.56 29 230.3 8.1 61.53 3.71 23.59 13.26"/><path class="cls-2" d="M212.28,189.61H40.62A40.66,40.66,0,0,1,0,149V40.62A40.66,40.66,0,0,1,40.62,0H212.28A40.66,40.66,0,0,1,252.9,40.62V149A40.66,40.66,0,0,1,212.28,189.61ZM40.62,11.88A28.77,28.77,0,0,0,11.88,40.62V149a28.78,28.78,0,0,0,28.74,28.75H212.28A28.78,28.78,0,0,0,241,149V40.62a28.77,28.77,0,0,0-28.74-28.74Z"/><path class="cls-2" d="M31,41.18l91.08,88.75c5.66,5.51,14.35-3.15,8.68-8.68L39.71,32.51C34.05,27,25.37,35.66,31,41.18Z"/><path class="cls-2" d="M130.79,129.93l91.08-88.74c5.66-5.53-3-14.2-8.68-8.68l-91.08,88.74c-5.66,5.53,3,14.2,8.68,8.68Z"/><path class="cls-2" d="M221.53,150.87,160.93,93.4c-5.73-5.43-14.43,3.23-8.68,8.68l60.6,57.47c5.73,5.43,14.43-3.23,8.68-8.68Z"/><path class="cls-2" d="M40.59,159.55l60.61-57.48c5.74-5.44-3-14.11-8.68-8.67l-60.6,57.47c-5.74,5.44,2.94,14.11,8.67,8.68Z"/></svg>